  0
SECTION
  2
HEADER
  9
$ACADVER
  1
AC1024
  9
$ACADMAINTVER
 70
     6
  9
$DWGCODEPAGE
  3
UNDEFINED
  9
$INSBASE
 10
0.0
 20
0.0
 30
0.0
  9
$EXTMIN
 10
1.000000000000000E+20
 20
1.000000000000000E+20
 30
1.000000000000000E+20
  9
$EXTMAX
 10
-1.000000000000000E+20
 20
-1.000000000000000E+20
 30
-1.000000000000000E+20
  9
$LIMMIN
 10
0.0
 20
0.0
  9
$LIMMAX
 10
12.0
 20
9.0
  9
$ORTHOMODE
 70
     0
  9
$REGENMODE
 70
     1
  9
$FILLMODE
 70
     1
  9
$QTEXTMODE
 70
     0
  9
$MIRRTEXT
 70
     1
  9
$LTSCALE
 40
1.0
  9
$ATTMODE
 70
     1
  9
$TEXTSIZE
 40
0.2
  9
$TRACEWID
 40
0.05
  9
$TEXTSTYLE
  7
Standard
  9
$CLAYER
  8
0
  9
$CELTYPE
  6
ByLayer
  9
$CECOLOR
 62
   256
  9
$CELTSCALE
 40
1.0
  9
$DISPSILH
 70
     0
  9
$DIMSCALE
 40
1.0
  9
$DIMASZ
 40
0.18
  9
$DIMEXO
 40
0.0625
  9
$DIMDLI
 40
0.38
  9
$DIMRND
 40
0.0
  9
$DIMDLE
 40
0.0
  9
$DIMEXE
 40
0.18
  9
$DIMTP
 40
0.0
  9
$DIMTM
 40
0.0
  9
$DIMTXT
 40
0.18
  9
$DIMCEN
 40
0.09
  9
$DIMTSZ
 40
0.0
  9
$DIMTOL
 70
     0
  9
$DIMLIM
 70
     0
  9
$DIMTIH
 70
     1
  9
$DIMTOH
 70
     1
  9
$DIMSE1
 70
     0
  9
$DIMSE2
 70
     0
  9
$DIMTAD
 70
     0
  9
$DIMZIN
 70
     0
  9
$DIMBLK
  1

  9
$DIMASO
 70
     1
  9
$DIMSHO
 70
     1
  9
$DIMPOST
  1

  9
$DIMAPOST
  1

  9
$DIMALT
 70
     0
  9
$DIMALTD
 70
     2
  9
$DIMALTF
 40
25.4
  9
$DIMLFAC
 40
1.0
  9
$DIMTOFL
 70
     0
  9
$DIMTVP
 40
0.0
  9
$DIMTIX
 70
     0
  9
$DIMSOXD
 70
     0
  9
$DIMSAH
 70
     0
  9
$DIMBLK1
  1

  9
$DIMBLK2
  1

  9
$DIMSTYLE
  2
Standard
  9
$DIMCLRD
 70
     0
  9
$DIMCLRE
 70
     0
  9
$DIMCLRT
 70
     0
  9
$DIMTFAC
 40
1.0
  9
$DIMGAP
 40
0.09
  9
$DIMJUST
 70
     0
  9
$DIMSD1
 70
     0
  9
$DIMSD2
 70
     0
  9
$DIMTOLJ
 70
     1
  9
$DIMTZIN
 70
     0
  9
$DIMALTZ
 70
     0
  9
$DIMALTTZ
 70
     0
  9
$DIMUPT
 70
     0
  9
$DIMDEC
 70
     4
  9
$DIMTDEC
 70
     4
  9
$DIMALTU
 70
     2
  9
$DIMALTTD
 70
     2
  9
$DIMTXSTY
  7
Standard
  9
$DIMAUNIT
 70
     0
  9
$DIMADEC
 70
     0
  9
$DIMALTRND
 40
0.0
  9
$DIMAZIN
 70
     0
  9
$DIMDSEP
 70
    46
  9
$DIMATFIT
 70
     3
  9
$DIMFRAC
 70
     0
  9
$DIMLDRBLK
  1

  9
$DIMLUNIT
 70
     2
  9
$DIMLWD
 70
    -2
  9
$DIMLWE
 70
    -2
  9
$DIMTMOVE
 70
     0
  9
$DIMFXL
 40
1.0
  9
$DIMFXLON
 70
     0
  9
$DIMJOGANG
 40
0.7853981633974483
  9
$DIMTFILL
 70
     0
  9
$DIMTFILLCLR
 70
     0
  9
$DIMARCSYM
 70
     0
  9
$DIMLTYPE
  6

  9
$DIMLTEX1
  6

  9
$DIMLTEX2
  6

  9
$DIMTXTDIRECTION
 70
     0
  9
$LUNITS
 70
     2
  9
$LUPREC
 70
     4
  9
$SKETCHINC
 40
0.1
  9
$FILLETRAD
 40
0.5
  9
$AUNITS
 70
     0
  9
$AUPREC
 70
     0
  9
$MENU
  1
.
  9
$ELEVATION
 40
0.0
  9
$PELEVATION
 40
0.0
  9
$THICKNESS
 40
0.0
  9
$LIMCHECK
 70
     0
  9
$CHAMFERA
 40
0.5
  9
$CHAMFERB
 40
0.5
  9
$CHAMFERC
 40
1.0
  9
$CHAMFERD
 40
0.0
  9
$SKPOLY
 70
     0
  9
$TDCREATE
 40
2458967.538912025
  9
$TDUCREATE
 40
2458967.74724537
  9
$TDUPDATE
 40
2458967.538912025
  9
$TDUUPDATE
 40
2458967.74724537
  9
$TDINDWG
 40
0.0000000116
  9
$TDUSRTIMER
 40
0.0000000116
  9
$USRTIMER
 70
     1
  9
$ANGBASE
 50
0.0
  9
$ANGDIR
 70
     0
  9
$PDMODE
 70
     0
  9
$PDSIZE
 40
0.0
  9
$PLINEWID
 40
0.0
  9
$SPLFRAME
 70
     0
  9
$SPLINETYPE
 70
     6
  9
$SPLINESEGS
 70
     8
  9
$HANDSEED
  5
24E
  9
$SURFTAB1
 70
     6
  9
$SURFTAB2
 70
     6
  9
$SURFTYPE
 70
     6
  9
$SURFU
 70
     6
  9
$SURFV
 70
     6
  9
$UCSBASE
  2

  9
$UCSNAME
  2

  9
$UCSORG
 10
0.0
 20
0.0
 30
0.0
  9
$UCSXDIR
 10
1.0
 20
0.0
 30
0.0
  9
$UCSYDIR
 10
0.0
 20
1.0
 30
0.0
  9
$UCSORTHOREF
  2

  9
$UCSORTHOVIEW
 70
     0
  9
$UCSORGTOP
 10
0.0
 20
0.0
 30
0.0
  9
$UCSORGBOTTOM
 10
0.0
 20
0.0
 30
0.0
  9
$UCSORGLEFT
 10
0.0
 20
0.0
 30
0.0
  9
$UCSORGRIGHT
 10
0.0
 20
0.0
 30
0.0
  9
$UCSORGFRONT
 10
0.0
 20
0.0
 30
0.0
  9
$UCSORGBACK
 10
0.0
 20
0.0
 30
0.0
  9
$PUCSBASE
  2

  9
$PUCSNAME
  2

  9
$PUCSORG
 10
0.0
 20
0.0
 30
0.0
  9
$PUCSXDIR
 10
1.0
 20
0.0
 30
0.0
  9
$PUCSYDIR
 10
0.0
 20
1.0
 30
0.0
  9
$PUCSORTHOREF
  2

  9
$PUCSORTHOVIEW
 70
     0
  9
$PUCSORGTOP
 10
0.0
 20
0.0
 30
0.0
  9
$PUCSORGBOTTOM
 10
0.0
 20
0.0
 30
0.0
  9
$PUCSORGLEFT
 10
0.0
 20
0.0
 30
0.0
  9
$PUCSORGRIGHT
 10
0.0
 20
0.0
 30
0.0
  9
$PUCSORGFRONT
 10
0.0
 20
0.0
 30
0.0
  9
$PUCSORGBACK
 10
0.0
 20
0.0
 30
0.0
  9
$USERI1
 70
     0
  9
$USERI2
 70
     0
  9
$USERI3
 70
     0
  9
$USERI4
 70
     0
  9
$USERI5
 70
     0
  9
$USERR1
 40
0.0
  9
$USERR2
 40
0.0
  9
$USERR3
 40
0.0
  9
$USERR4
 40
0.0
  9
$USERR5
 40
0.0
  9
$WORLDVIEW
 70
     1
  9
$SHADEDGE
 70
     3
  9
$SHADEDIF
 70
    70
  9
$TILEMODE
 70
     1
  9
$MAXACTVP
 70
    64
  9
$PINSBASE
 10
0.0
 20
0.0
 30
0.0
  9
$PLIMCHECK
 70
     0
  9
$PEXTMIN
 10
1.000000000000000E+20
 20
1.000000000000000E+20
 30
1.000000000000000E+20
  9
$PEXTMAX
 10
-1.000000000000000E+20
 20
-1.000000000000000E+20
 30
-1.000000000000000E+20
  9
$PLIMMIN
 10
0.0
 20
0.0
  9
$PLIMMAX
 10
12.0
 20
9.0
  9
$UNITMODE
 70
     0
  9
$VISRETAIN
 70
     1
  9
$PLINEGEN
 70
     0
  9
$PSLTSCALE
 70
     1
  9
$TREEDEPTH
 70
  3020
  9
$CMLSTYLE
  2
Standard
  9
$CMLJUST
 70
     0
  9
$CMLSCALE
 40
1.0
  9
$PROXYGRAPHICS
 70
     1
  9
$MEASUREMENT
 70
     0
  9
$CELWEIGHT
370
    -1
  9
$ENDCAPS
280
     0
  9
$JOINSTYLE
280
     0
  9
$LWDISPLAY
290
     1
  9
$INSUNITS
 70
     1
  9
$HYPERLINKBASE
  1

  9
$STYLESHEET
  1

  9
$XEDIT
290
     1
  9
$CEPSNTYPE
380
     0
  9
$PSTYLEMODE
290
     1
  9
$FINGERPRINTGUID
  2
{106A9720-8FB0-146F-CAEA-1B0CF3289CCA}
  9
$VERSIONGUID
  2
{FAEB1C32-E019-11D5-929B-00C0DF256EC4}
  9
$EXTNAMES
290
     1
  9
$PSVPSCALE
 40
0.0
  9
$OLESTARTUP
290
     0
  9
$SORTENTS
280
   127
  9
$INDEXCTL
280
     0
  9
$HIDETEXT
280
     1
  9
$XCLIPFRAME
280
     2
  9
$HALOGAP
280
     0
  9
$OBSCOLOR
 70
   257
  9
$OBSLTYPE
280
     0
  9
$INTERSECTIONDISPLAY
280
     0
  9
$INTERSECTIONCOLOR
 70
   257
  9
$DIMASSOC
280
     2
  9
$PROJECTNAME
  1

  9
$CAMERADISPLAY
290
     0
  9
$LENSLENGTH
 40
50.0
  9
$CAMERAHEIGHT
 40
0.0
  9
$STEPSPERSEC
 40
2.0
  9
$STEPSIZE
 40
6.0
  9
$3DDWFPREC
 40
2.0
  9
$PSOLWIDTH
 40
0.25
  9
$PSOLHEIGHT
 40
4.0
  9
$LOFTANG1
 40
1.570796326794897
  9
$LOFTANG2
 40
1.570796326794897
  9
$LOFTMAG1
 40
0.0
  9
$LOFTMAG2
 40
0.0
  9
$LOFTPARAM
 70
     7
  9
$LOFTNORMALS
280
     1
  9
$LATITUDE
 40
37.795
  9
$LONGITUDE
 40
-122.394
  9
$NORTHDIRECTION
 40
0.0
  9
$TIMEZONE
 70
 -8000
  9
$LIGHTGLYPHDISPLAY
280
     1
  9
$TILEMODELIGHTSYNCH
280
     1
  9
$CMATERIAL
347
3C
  9
$SOLIDHIST
280
     1
  9
$SHOWHIST
280
     1
  9
$DWFFRAME
280
     2
  9
$DGNFRAME
280
     2
  9
$REALWORLDSCALE
290
     1
  9
$INTERFERECOLOR
 62
   256
  9
$CSHADOW
280
     0
  9
$SHADOWPLANELOCATION
 40
0.0
  0
ENDSEC
  0
SECTION
  2
CLASSES
  0
CLASS
  1
ACDBDICTIONARYWDFLT
  2
AcDbDictionaryWithDefault
  3
ObjectDBX Classes
 90
        0
 91
        4
280
     0
281
     0
  0
CLASS
  1
VISUALSTYLE
  2
AcDbVisualStyle
  3
ObjectDBX Classes
 90
     4095
 91
        4
280
     0
281
     0
  0
CLASS
  1
MATERIAL
  2
AcDbMaterial
  3
ObjectDBX Classes
 90
     1153
 91
        4
280
     0
281
     0
  0
CLASS
  1
SUN
  2
AcDbSun
  3
SCENEOE
 90
     1024
 91
        4
280
     0
281
     0
  0
ENDSEC
  0
SECTION
  2
TABLES
  0
TABLE
  2
VPORT
  5
8
330
0
100
AcDbSymbolTable
 70
     1
  0
VPORT
  5
29
330
8
100
AcDbSymbolTableRecord
100
AcDbViewportTableRecord
  2
*Active
 70
     0
 10
0.0
 20
0.0
 11
1.0
 21
1.0
 12
0.0
 22
0.0
 13
0.0
 23
0.0
 14
0.5
 24
0.5
 15
0.5
 25
0.5
 16
0.0
 26
0.0
 36
1.0
 17
5.927663109575633
 27
-5.913774432614446
 37
0.0
 40
2.883104420784447
 41
0.9999998529865067
 42
50.0
 43
0.0
 44
0.0
 50
0.0
 51
0.0
 71
     0
 72
   100
 73
     1
 74
     3
 75
     0
 76
     0
 77
     0
 78
     0
281
     0
 65
     1
110
0.0
120
0.0
130
0.0
111
1.0
121
0.0
131
0.0
112
0.0
122
1.0
132
0.0
 79
     0
146
0.0
 60
     3
 61
     5
292
     1
282
     1
141
0.0
142
0.0
 63
   250
361
3F
  0
ENDTAB
  0
TABLE
  2
LTYPE
  5
5
330
0
100
AcDbSymbolTable
 70
     1
  0
LTYPE
  5
14
330
5
100
AcDbSymbolTableRecord
100
AcDbLinetypeTableRecord
  2
ByBlock
 70
     0
  3

 72
    65
 73
     0
 40
0.0
  0
LTYPE
  5
15
330
5
100
AcDbSymbolTableRecord
100
AcDbLinetypeTableRecord
  2
ByLayer
 70
     0
  3

 72
    65
 73
     0
 40
0.0
  0
LTYPE
  5
16
330
5
100
AcDbSymbolTableRecord
100
AcDbLinetypeTableRecord
  2
Continuous
 70
     0
  3
Solid line
 72
    65
 73
     0
 40
0.0
  0
ENDTAB
  0
TABLE
  2
LAYER
  5
2
330
0
100
AcDbSymbolTable
 70
     2
  0
LAYER
  5
10
330
2
100
AcDbSymbolTableRecord
100
AcDbLayerTableRecord
  2
0
 70
     0
 62
     7
  6
Continuous
370
    -3
390
F
347
3E
  0
LAYER
  5
40
330
2
100
AcDbSymbolTableRecord
100
AcDbLayerTableRecord
  2
Layer 1
 70
     0
 62
     7
  6
Continuous
370
    -3
390
F
347
3E
  0
ENDTAB
  0
TABLE
  2
STYLE
  5
3
330
0
100
AcDbSymbolTable
 70
     1
  0
STYLE
  5
11
330
3
100
AcDbSymbolTableRecord
100
AcDbTextStyleTableRecord
  2
Standard
 70
     0
 40
0.0
 41
1.0
 50
0.0
 71
     0
 42
0.2
  3
txt
  4

  0
ENDTAB
  0
TABLE
  2
VIEW
  5
6
330
0
100
AcDbSymbolTable
 70
     0
  0
ENDTAB
  0
TABLE
  2
UCS
  5
7
330
0
100
AcDbSymbolTable
 70
     0
  0
ENDTAB
  0
TABLE
  2
APPID
  5
9
330
0
100
AcDbSymbolTable
 70
     1
  0
APPID
  5
12
330
9
100
AcDbSymbolTableRecord
100
AcDbRegAppTableRecord
  2
ACAD
 70
     0
  0
ENDTAB
  0
TABLE
  2
DIMSTYLE
  5
A
330
0
100
AcDbSymbolTable
 70
     1
100
AcDbDimStyleTable
  0
DIMSTYLE
105
27
330
A
100
AcDbSymbolTableRecord
100
AcDbDimStyleTableRecord
  2
Standard
 70
     0
178
     0
340
11
  0
ENDTAB
  0
TABLE
  2
BLOCK_RECORD
  5
1
330
0
100
AcDbSymbolTable
 70
     1
  0
BLOCK_RECORD
  5
1F
330
1
100
AcDbSymbolTableRecord
100
AcDbBlockTableRecord
  2
*Model_Space
340
22
 70
     0
280
     1
281
     0
  0
BLOCK_RECORD
  5
1B
330
1
100
AcDbSymbolTableRecord
100
AcDbBlockTableRecord
  2
*Paper_Space
340
1E
 70
     0
280
     1
281
     0
  0
BLOCK_RECORD
  5
23
330
1
100
AcDbSymbolTableRecord
100
AcDbBlockTableRecord
  2
*Paper_Space0
340
26
 70
     0
280
     1
281
     0
  0
ENDTAB
  0
ENDSEC
  0
SECTION
  2
BLOCKS
  0
BLOCK
  5
20
330
1F
100
AcDbEntity
  8
0
100
AcDbBlockBegin
  2
*Model_Space
 70
     0
 10
0.0
 20
0.0
 30
0.0
  3
*Model_Space
  1

  0
ENDBLK
  5
21
330
1F
100
AcDbEntity
  8
0
100
AcDbBlockEnd
  0
BLOCK
  5
1C
330
1B
100
AcDbEntity
 67
     1
  8
0
100
AcDbBlockBegin
  2
*Paper_Space
 70
     0
 10
0.0
 20
0.0
 30
0.0
  3
*Paper_Space
  1

  0
ENDBLK
  5
1D
330
1B
100
AcDbEntity
 67
     1
  8
0
100
AcDbBlockEnd
  0
BLOCK
  5
24
330
23
100
AcDbEntity
  8
0
100
AcDbBlockBegin
  2
*Paper_Space0
 70
     0
 10
0.0
 20
0.0
 30
0.0
  3
*Paper_Space0
  1

  0
ENDBLK
  5
25
330
23
100
AcDbEntity
  8
0
100
AcDbBlockEnd
  0
ENDSEC
  0
SECTION
  2
ENTITIES
  0
SPLINE
  5
41
330
1F
100
AcDbEntity
  8
Layer 1
 62
   144
420
  1799611
370
    25
100
AcDbSpline
210
0.0
220
0.0
230
1.0
 70
    11
 71
     3
 72
    17
 73
    13
 74
     0
 42
0.0000000001
 43
0.0000000001
 12
1.0
 22
0.0
 32
0.0
 13
1.0
 23
0.0
 33
0.0
 40
0.0
 40
0.0
 40
0.0
 40
0.0
 40
1.0
 40
1.0
 40
1.0
 40
2.0
 40
2.0
 40
2.0
 40
3.0
 40
3.0
 40
3.0
 40
4.0
 40
4.0
 40
4.0
 40
4.0
 10
4.656135077484704
 20
-4.599190972124537
 30
0.0
 10
4.679914204817591
 20
-4.599190972124537
 30
0.0
 10
4.69919071781131
 20
-4.618467485118243
 30
0.0
 10
4.69919071781131
 20
-4.642246612451142
 30
0.0
 10
4.69919071781131
 20
-4.666025739784041
 30
0.0
 10
4.679914204817591
 20
-4.685302252777748
 30
0.0
 10
4.656135077484704
 20
-4.685302252777748
 30
0.0
 10
4.632355950151805
 20
-4.685302252777748
 30
0.0
 10
4.613079437158098
 20
-4.666025739784041
 30
0.0
 10
4.613079437158098
 20
-4.642246612451142
 30
0.0
 10
4.613079437158098
 20
-4.618467485118243
 30
0.0
 10
4.632355950151805
 20
-4.599190972124537
 30
0.0
 10
4.656135077484704
 20
-4.599190972124537
 30
0.0
  0
SPLINE
  5
42
330
1F
100
AcDbEntity
  8
Layer 1
 62
   144
420
  1799611
370
    25
100
AcDbSpline
210
0.0
220
0.0
230
1.0
 70
    11
 71
     3
 72
    17
 73
    13
 74
     0
 42
0.0000000001
 43
0.0000000001
 12
1.0
 22
0.0
 32
0.0
 13
1.0
 23
0.0
 33
0.0
 40
0.0
 40
0.0
 40
0.0
 40
0.0
 40
1.0
 40
1.0
 40
1.0
 40
2.0
 40
2.0
 40
2.0
 40
3.0
 40
3.0
 40
3.0
 40
4.0
 40
4.0
 40
4.0
 40
4.0
 10
7.199190823775123
 20
-7.142246612451142
 30
0.0
 10
7.222969739180396
 20
-7.142246612451142
 30
0.0
 10
7.242246358137916
 20
-7.161522701589597
 30
0.0
 10
7.242246358137916
 20
-7.185301828922497
 30
0.0
 10
7.242246358137916
 20
-7.209080956255396
 30
0.0
 10
7.222969739180396
 20
-7.22835704539385
 30
0.0
 10
7.199190823775123
 20
-7.22835704539385
 30
0.0
 10
7.175411908369849
 20
-7.22835704539385
 30
0.0
 10
7.15613528941233
 20
-7.209080956255396
 30
0.0
 10
7.15613528941233
 20
-7.185301828922497
 30
0.0
 10
7.15613528941233
 20
-7.161522701589597
 30
0.0
 10
7.175411908369849
 20
-7.142246612451142
 30
0.0
 10
7.199190823775123
 20
-7.142246612451142
 30
0.0
  0
SPLINE
  5
43
330
1F
100
AcDbEntity
  8
Layer 1
 62
   144
420
  1799611
370
    25
100
AcDbSpline
210
0.0
220
0.0
230
1.0
 70
    11
 71
     3
 72
    17
 73
    13
 74
     0
 42
0.0000000001
 43
0.0000000001
 12
1.0
 22
0.0
 32
0.0
 13
1.0
 23
0.0
 33
0.0
 40
0.0
 40
0.0
 40
0.0
 40
0.0
 40
1.0
 40
1.0
 40
1.0
 40
2.0
 40
2.0
 40
2.0
 40
3.0
 40
3.0
 40
3.0
 40
4.0
 40
4.0
 40
4.0
 40
4.0
 10
7.199190823775123
 20
-4.599190972124537
 30
0.0
 10
7.222969739180396
 20
-4.599190972124537
 30
0.0
 10
7.242246358137916
 20
-4.618467485118243
 30
0.0
 10
7.242246358137916
 20
-4.642246612451142
 30
0.0
 10
7.242246358137916
 20
-4.666025739784041
 30
0.0
 10
7.222969739180396
 20
-4.685302252777748
 30
0.0
 10
7.199190823775123
 20
-4.685302252777748
 30
0.0
 10
7.175411908369849
 20
-4.685302252777748
 30
0.0
 10
7.15613528941233
 20
-4.666025739784041
 30
0.0
 10
7.15613528941233
 20
-4.642246612451142
 30
0.0
 10
7.15613528941233
 20
-4.618467485118243
 30
0.0
 10
7.175411908369849
 20
-4.599190972124537
 30
0.0
 10
7.199190823775123
 20
-4.599190972124537
 30
0.0
  0
SPLINE
  5
44
330
1F
100
AcDbEntity
  8
Layer 1
 62
   144
420
  1799611
370
    25
100
AcDbSpline
210
0.0
220
0.0
230
1.0
 70
    11
 71
     3
 72
    17
 73
    13
 74
     0
 42
0.0000000001
 43
0.0000000001
 12
1.0
 22
0.0
 32
0.0
 13
1.0
 23
0.0
 33
0.0
 40
0.0
 40
0.0
 40
0.0
 40
0.0
 40
1.0
 40
1.0
 40
1.0
 40
2.0
 40
2.0
 40
2.0
 40
3.0
 40
3.0
 40
3.0
 40
4.0
 40
4.0
 40
4.0
 40
4.0
 10
4.656135077484704
 20
-7.142246612451142
 30
0.0
 10
4.679914204817591
 20
-7.142246612451142
 30
0.0
 10
4.69919071781131
 20
-7.161522701589597
 30
0.0
 10
4.69919071781131
 20
-7.185301828922497
 30
0.0
 10
4.69919071781131
 20
-7.209080956255396
 30
0.0
 10
4.679914204817591
 20
-7.22835704539385
 30
0.0
 10
4.656135077484704
 20
-7.22835704539385
 30
0.0
 10
4.632355950151805
 20
-7.22835704539385
 30
0.0
 10
4.613079437158098
 20
-7.209080956255396
 30
0.0
 10
4.613079437158098
 20
-7.185301828922497
 30
0.0
 10
4.613079437158098
 20
-7.161522701589597
 30
0.0
 10
4.632355950151805
 20
-7.142246612451142
 30
0.0
 10
4.656135077484704
 20
-7.142246612451142
 30
0.0
  0
POLYLINE
  5
45
330
1F
100
AcDbEntity
  8
Layer 1
 62
   144
420
  1799611
370
    25
100
AcDb2dPolyline
 66
     1
 10
0.0
 20
0.0
 30
0.0
  0
VERTEX
  5
46
330
45
100
AcDbEntity
  8
Layer 1
 62
   144
420
  1799611
370
    25
100
AcDbVertex
100
AcDb2dVertex
 10
6.953213025631385
 20
-6.915724350601926
 30
0.0
  0
VERTEX
  5
47
330
45
100
AcDbEntity
  8
Layer 1
 62
   144
420
  1799611
370
    25
100
AcDbVertex
100
AcDb2dVertex
 10
6.953213025631385
 20
-6.939324348670198
 30
0.0
  0
SEQEND
  5
48
330
45
100
AcDbEntity
  8
Layer 1
 62
   144
420
  1799611
370
    25
  0
POLYLINE
  5
49
330
1F
100
AcDbEntity
  8
Layer 1
 62
   144
420
  1799611
370
    25
100
AcDb2dPolyline
 66
     1
 10
0.0
 20
0.0
 30
0.0
  0
VERTEX
  5
4A
330
49
100
AcDbEntity
  8
Layer 1
 62
   144
420
  1799611
370
    25
100
AcDbVertex
100
AcDb2dVertex
 10
6.982813023208538
 20
-6.915724350601926
 30
0.0
  0
VERTEX
  5
4B
330
49
100
AcDbEntity
  8
Layer 1
 62
   144
420
  1799611
370
    25
100
AcDbVertex
100
AcDb2dVertex
 10
6.953213025631385
 20
-6.915724350601926
 30
0.0
  0
SEQEND
  5
4C
330
49
100
AcDbEntity
  8
Layer 1
 62
   144
420
  1799611
370
    25
  0
POLYLINE
  5
4D
330
1F
100
AcDbEntity
  8
Layer 1
 62
   144
420
  1799611
370
    25
100
AcDb2dPolyline
 66
     1
 10
0.0
 20
0.0
 30
0.0
  0
VERTEX
  5
4E
330
4D
100
AcDbEntity
  8
Layer 1
 62
   144
420
  1799611
370
    25
100
AcDbVertex
100
AcDb2dVertex
 10
6.402113070740521
 20
-6.915724350601926
 30
0.0
  0
VERTEX
  5
4F
330
4D
100
AcDbEntity
  8
Layer 1
 62
   144
420
  1799611
370
    25
100
AcDbVertex
100
AcDb2dVertex
 10
6.372513073163367
 20
-6.915724350601926
 30
0.0
  0
SEQEND
  5
50
330
4D
100
AcDbEntity
  8
Layer 1
 62
   144
420
  1799611
370
    25
  0
POLYLINE
  5
51
330
1F
100
AcDbEntity
  8
Layer 1
 62
   144
420
  1799611
370
    25
100
AcDb2dPolyline
 66
     1
 10
0.0
 20
0.0
 30
0.0
  0
VERTEX
  5
52
330
51
100
AcDbEntity
  8
Layer 1
 62
   144
420
  1799611
370
    25
100
AcDbVertex
100
AcDb2dVertex
 10
6.402113070740521
 20
-6.939324348670198
 30
0.0
  0
VERTEX
  5
53
330
51
100
AcDbEntity
  8
Layer 1
 62
   144
420
  1799611
370
    25
100
AcDbVertex
100
AcDb2dVertex
 10
6.402113070740521
 20
-6.915724350601926
 30
0.0
  0
SEQEND
  5
54
330
51
100
AcDbEntity
  8
Layer 1
 62
   144
420
  1799611
370
    25
  0
POLYLINE
  5
55
330
1F
100
AcDbEntity
  8
Layer 1
 62
   144
420
  1799611
370
    25
100
AcDb2dPolyline
 66
     1
 10
0.0
 20
0.0
 30
0.0
  0
VERTEX
  5
56
330
55
100
AcDbEntity
  8
Layer 1
 62
   144
420
  1799611
370
    25
100
AcDbVertex
100
AcDb2dVertex
 10
6.953213025631385
 20
-6.411824391847605
 30
0.0
  0
VERTEX
  5
57
330
55
100
AcDbEntity
  8
Layer 1
 62
   144
420
  1799611
370
    25
100
AcDbVertex
100
AcDb2dVertex
 10
6.982813023208538
 20
-6.411824391847605
 30
0.0
  0
SEQEND
  5
58
330
55
100
AcDbEntity
  8
Layer 1
 62
   144
420
  1799611
370
    25
  0
POLYLINE
  5
59
330
1F
100
AcDbEntity
  8
Layer 1
 62
   144
420
  1799611
370
    25
100
AcDb2dPolyline
 66
     1
 10
0.0
 20
0.0
 30
0.0
  0
VERTEX
  5
5A
330
59
100
AcDbEntity
  8
Layer 1
 62
   144
420
  1799611
370
    25
100
AcDbVertex
100
AcDb2dVertex
 10
6.953213025631385
 20
-6.388224393779334
 30
0.0
  0
VERTEX
  5
5B
330
59
100
AcDbEntity
  8
Layer 1
 62
   144
420
  1799611
370
    25
100
AcDbVertex
100
AcDb2dVertex
 10
6.953213025631385
 20
-6.411824391847605
 30
0.0
  0
SEQEND
  5
5C
330
59
100
AcDbEntity
  8
Layer 1
 62
   144
420
  1799611
370
    25
  0
POLYLINE
  5
5D
330
1F
100
AcDbEntity
  8
Layer 1
 62
   144
420
  1799611
370
    25
100
AcDb2dPolyline
 66
     1
 10
0.0
 20
0.0
 30
0.0
  0
VERTEX
  5
5E
330
5D
100
AcDbEntity
  8
Layer 1
 62
   144
420
  1799611
370
    25
100
AcDbVertex
100
AcDb2dVertex
 10
6.402113070740521
 20
-6.411824391847605
 30
0.0
  0
VERTEX
  5
5F
330
5D
100
AcDbEntity
  8
Layer 1
 62
   144
420
  1799611
370
    25
100
AcDbVertex
100
AcDb2dVertex
 10
6.402113070740521
 20
-6.388224393779334
 30
0.0
  0
SEQEND
  5
60
330
5D
100
AcDbEntity
  8
Layer 1
 62
   144
420
  1799611
370
    25
  0
POLYLINE
  5
61
330
1F
100
AcDbEntity
  8
Layer 1
 62
   144
420
  1799611
370
    25
100
AcDb2dPolyline
 66
     1
 10
0.0
 20
0.0
 30
0.0
  0
VERTEX
  5
62
330
61
100
AcDbEntity
  8
Layer 1
 62
   144
420
  1799611
370
    25
100
AcDbVertex
100
AcDb2dVertex
 10
6.372513073163367
 20
-6.411824391847605
 30
0.0
  0
VERTEX
  5
63
330
61
100
AcDbEntity
  8
Layer 1
 62
   144
420
  1799611
370
    25
100
AcDbVertex
100
AcDb2dVertex
 10
6.402113070740521
 20
-6.411824391847605
 30
0.0
  0
SEQEND
  5
64
330
61
100
AcDbEntity
  8
Layer 1
 62
   144
420
  1799611
370
    25
  0
POLYLINE
  5
65
330
1F
100
AcDbEntity
  8
Layer 1
 62
   144
420
  1799611
370
    25
100
AcDb2dPolyline
 66
     1
 10
0.0
 20
0.0
 30
0.0
  0
VERTEX
  5
66
330
65
100
AcDbEntity
  8
Layer 1
 62
   144
420
  1799611
370
    25
100
AcDbVertex
100
AcDb2dVertex
 10
6.372513073163367
 20
-6.411824391847605
 30
0.0
  0
VERTEX
  5
67
330
65
100
AcDbEntity
  8
Layer 1
 62
   144
420
  1799611
370
    25
100
AcDbVertex
100
AcDb2dVertex
 10
6.372513073163367
 20
-6.915724350601926
 30
0.0
  0
SEQEND
  5
68
330
65
100
AcDbEntity
  8
Layer 1
 62
   144
420
  1799611
370
    25
  0
POLYLINE
  5
69
330
1F
100
AcDbEntity
  8
Layer 1
 62
   144
420
  1799611
370
    25
100
AcDb2dPolyline
 66
     1
 10
0.0
 20
0.0
 30
0.0
  0
VERTEX
  5
6A
330
69
100
AcDbEntity
  8
Layer 1
 62
   144
420
  1799611
370
    25
100
AcDbVertex
100
AcDb2dVertex
 10
6.982813023208538
 20
-6.411824391847605
 30
0.0
  0
VERTEX
  5
6B
330
69
100
AcDbEntity
  8
Layer 1
 62
   144
420
  1799611
370
    25
100
AcDbVertex
100
AcDb2dVertex
 10
6.982813023208538
 20
-6.915724350601926
 30
0.0
  0
SEQEND
  5
6C
330
69
100
AcDbEntity
  8
Layer 1
 62
   144
420
  1799611
370
    25
  0
POLYLINE
  5
6D
330
1F
100
AcDbEntity
  8
Layer 1
 62
   144
420
  1799611
370
    25
100
AcDb2dPolyline
 66
     1
 10
0.0
 20
0.0
 30
0.0
  0
VERTEX
  5
6E
330
6D
100
AcDbEntity
  8
Layer 1
 62
   144
420
  1799611
370
    25
100
AcDbVertex
100
AcDb2dVertex
 10
6.402113070740521
 20
-6.939324348670198
 30
0.0
  0
VERTEX
  5
6F
330
6D
100
AcDbEntity
  8
Layer 1
 62
   144
420
  1799611
370
    25
100
AcDbVertex
100
AcDb2dVertex
 10
6.953213025631385
 20
-6.939324348670198
 30
0.0
  0
SEQEND
  5
70
330
6D
100
AcDbEntity
  8
Layer 1
 62
   144
420
  1799611
370
    25
  0
POLYLINE
  5
71
330
1F
100
AcDbEntity
  8
Layer 1
 62
   144
420
  1799611
370
    25
100
AcDb2dPolyline
 66
     1
 10
0.0
 20
0.0
 30
0.0
  0
VERTEX
  5
72
330
71
100
AcDbEntity
  8
Layer 1
 62
   144
420
  1799611
370
    25
100
AcDbVertex
100
AcDb2dVertex
 10
6.402113070740521
 20
-6.388224393779334
 30
0.0
  0
VERTEX
  5
73
330
71
100
AcDbEntity
  8
Layer 1
 62
   144
420
  1799611
370
    25
100
AcDbVertex
100
AcDb2dVertex
 10
6.953213025631385
 20
-6.388224393779334
 30
0.0
  0
SEQEND
  5
74
330
71
100
AcDbEntity
  8
Layer 1
 62
   144
420
  1799611
370
    25
  0
POLYLINE
  5
75
330
1F
100
AcDbEntity
  8
Layer 1
 62
   144
420
  1799611
370
    25
100
AcDb2dPolyline
 66
     1
 10
0.0
 20
0.0
 30
0.0
  0
VERTEX
  5
76
330
75
100
AcDbEntity
  8
Layer 1
 62
   144
420
  1799611
370
    25
100
AcDbVertex
100
AcDb2dVertex
 10
6.203213087021064
 20
-6.915724350601926
 30
0.0
  0
VERTEX
  5
77
330
75
100
AcDbEntity
  8
Layer 1
 62
   144
420
  1799611
370
    25
100
AcDbVertex
100
AcDb2dVertex
 10
6.203213087021064
 20
-6.939324348670198
 30
0.0
  0
SEQEND
  5
78
330
75
100
AcDbEntity
  8
Layer 1
 62
   144
420
  1799611
370
    25
  0
POLYLINE
  5
79
330
1F
100
AcDbEntity
  8
Layer 1
 62
   144
420
  1799611
370
    25
100
AcDb2dPolyline
 66
     1
 10
0.0
 20
0.0
 30
0.0
  0
VERTEX
  5
7A
330
79
100
AcDbEntity
  8
Layer 1
 62
   144
420
  1799611
370
    25
100
AcDbVertex
100
AcDb2dVertex
 10
6.232813084598218
 20
-6.915724350601926
 30
0.0
  0
VERTEX
  5
7B
330
79
100
AcDbEntity
  8
Layer 1
 62
   144
420
  1799611
370
    25
100
AcDbVertex
100
AcDb2dVertex
 10
6.203213087021064
 20
-6.915724350601926
 30
0.0
  0
SEQEND
  5
7C
330
79
100
AcDbEntity
  8
Layer 1
 62
   144
420
  1799611
370
    25
  0
POLYLINE
  5
7D
330
1F
100
AcDbEntity
  8
Layer 1
 62
   144
420
  1799611
370
    25
100
AcDb2dPolyline
 66
     1
 10
0.0
 20
0.0
 30
0.0
  0
VERTEX
  5
7E
330
7D
100
AcDbEntity
  8
Layer 1
 62
   144
420
  1799611
370
    25
100
AcDbVertex
100
AcDb2dVertex
 10
5.652113132130201
 20
-6.915724350601926
 30
0.0
  0
VERTEX
  5
7F
330
7D
100
AcDbEntity
  8
Layer 1
 62
   144
420
  1799611
370
    25
100
AcDbVertex
100
AcDb2dVertex
 10
5.622513134553047
 20
-6.915724350601926
 30
0.0
  0
SEQEND
  5
80
330
7D
100
AcDbEntity
  8
Layer 1
 62
   144
420
  1799611
370
    25
  0
POLYLINE
  5
81
330
1F
100
AcDbEntity
  8
Layer 1
 62
   144
420
  1799611
370
    25
100
AcDb2dPolyline
 66
     1
 10
0.0
 20
0.0
 30
0.0
  0
VERTEX
  5
82
330
81
100
AcDbEntity
  8
Layer 1
 62
   144
420
  1799611
370
    25
100
AcDbVertex
100
AcDb2dVertex
 10
5.652113132130201
 20
-6.939324348670198
 30
0.0
  0
VERTEX
  5
83
330
81
100
AcDbEntity
  8
Layer 1
 62
   144
420
  1799611
370
    25
100
AcDbVertex
100
AcDb2dVertex
 10
5.652113132130201
 20
-6.915724350601926
 30
0.0
  0
SEQEND
  5
84
330
81
100
AcDbEntity
  8
Layer 1
 62
   144
420
  1799611
370
    25
  0
POLYLINE
  5
85
330
1F
100
AcDbEntity
  8
Layer 1
 62
   144
420
  1799611
370
    25
100
AcDb2dPolyline
 66
     1
 10
0.0
 20
0.0
 30
0.0
  0
VERTEX
  5
86
330
85
100
AcDbEntity
  8
Layer 1
 62
   144
420
  1799611
370
    25
100
AcDbVertex
100
AcDb2dVertex
 10
6.203213087021064
 20
-6.411824391847605
 30
0.0
  0
VERTEX
  5
87
330
85
100
AcDbEntity
  8
Layer 1
 62
   144
420
  1799611
370
    25
100
AcDbVertex
100
AcDb2dVertex
 10
6.232813084598218
 20
-6.411824391847605
 30
0.0
  0
SEQEND
  5
88
330
85
100
AcDbEntity
  8
Layer 1
 62
   144
420
  1799611
370
    25
  0
POLYLINE
  5
89
330
1F
100
AcDbEntity
  8
Layer 1
 62
   144
420
  1799611
370
    25
100
AcDb2dPolyline
 66
     1
 10
0.0
 20
0.0
 30
0.0
  0
VERTEX
  5
8A
330
89
100
AcDbEntity
  8
Layer 1
 62
   144
420
  1799611
370
    25
100
AcDbVertex
100
AcDb2dVertex
 10
6.203213087021064
 20
-6.388224393779334
 30
0.0
  0
VERTEX
  5
8B
330
89
100
AcDbEntity
  8
Layer 1
 62
   144
420
  1799611
370
    25
100
AcDbVertex
100
AcDb2dVertex
 10
6.203213087021064
 20
-6.411824391847605
 30
0.0
  0
SEQEND
  5
8C
330
89
100
AcDbEntity
  8
Layer 1
 62
   144
420
  1799611
370
    25
  0
POLYLINE
  5
8D
330
1F
100
AcDbEntity
  8
Layer 1
 62
   144
420
  1799611
370
    25
100
AcDb2dPolyline
 66
     1
 10
0.0
 20
0.0
 30
0.0
  0
VERTEX
  5
8E
330
8D
100
AcDbEntity
  8
Layer 1
 62
   144
420
  1799611
370
    25
100
AcDbVertex
100
AcDb2dVertex
 10
5.652113132130201
 20
-6.411824391847605
 30
0.0
  0
VERTEX
  5
8F
330
8D
100
AcDbEntity
  8
Layer 1
 62
   144
420
  1799611
370
    25
100
AcDbVertex
100
AcDb2dVertex
 10
5.652113132130201
 20
-6.388224393779334
 30
0.0
  0
SEQEND
  5
90
330
8D
100
AcDbEntity
  8
Layer 1
 62
   144
420
  1799611
370
    25
  0
POLYLINE
  5
91
330
1F
100
AcDbEntity
  8
Layer 1
 62
   144
420
  1799611
370
    25
100
AcDb2dPolyline
 66
     1
 10
0.0
 20
0.0
 30
0.0
  0
VERTEX
  5
92
330
91
100
AcDbEntity
  8
Layer 1
 62
   144
420
  1799611
370
    25
100
AcDbVertex
100
AcDb2dVertex
 10
5.622513134553047
 20
-6.411824391847605
 30
0.0
  0
VERTEX
  5
93
330
91
100
AcDbEntity
  8
Layer 1
 62
   144
420
  1799611
370
    25
100
AcDbVertex
100
AcDb2dVertex
 10
5.652113132130201
 20
-6.411824391847605
 30
0.0
  0
SEQEND
  5
94
330
91
100
AcDbEntity
  8
Layer 1
 62
   144
420
  1799611
370
    25
  0
POLYLINE
  5
95
330
1F
100
AcDbEntity
  8
Layer 1
 62
   144
420
  1799611
370
    25
100
AcDb2dPolyline
 66
     1
 10
0.0
 20
0.0
 30
0.0
  0
VERTEX
  5
96
330
95
100
AcDbEntity
  8
Layer 1
 62
   144
420
  1799611
370
    25
100
AcDbVertex
100
AcDb2dVertex
 10
5.622513134553047
 20
-6.411824391847605
 30
0.0
  0
VERTEX
  5
97
330
95
100
AcDbEntity
  8
Layer 1
 62
   144
420
  1799611
370
    25
100
AcDbVertex
100
AcDb2dVertex
 10
5.622513134553047
 20
-6.915724350601926
 30
0.0
  0
SEQEND
  5
98
330
95
100
AcDbEntity
  8
Layer 1
 62
   144
420
  1799611
370
    25
  0
POLYLINE
  5
99
330
1F
100
AcDbEntity
  8
Layer 1
 62
   144
420
  1799611
370
    25
100
AcDb2dPolyline
 66
     1
 10
0.0
 20
0.0
 30
0.0
  0
VERTEX
  5
9A
330
99
100
AcDbEntity
  8
Layer 1
 62
   144
420
  1799611
370
    25
100
AcDbVertex
100
AcDb2dVertex
 10
6.232813084598218
 20
-6.411824391847605
 30
0.0
  0
VERTEX
  5
9B
330
99
100
AcDbEntity
  8
Layer 1
 62
   144
420
  1799611
370
    25
100
AcDbVertex
100
AcDb2dVertex
 10
6.232813084598218
 20
-6.915724350601926
 30
0.0
  0
SEQEND
  5
9C
330
99
100
AcDbEntity
  8
Layer 1
 62
   144
420
  1799611
370
    25
  0
POLYLINE
  5
9D
330
1F
100
AcDbEntity
  8
Layer 1
 62
   144
420
  1799611
370
    25
100
AcDb2dPolyline
 66
     1
 10
0.0
 20
0.0
 30
0.0
  0
VERTEX
  5
9E
330
9D
100
AcDbEntity
  8
Layer 1
 62
   144
420
  1799611
370
    25
100
AcDbVertex
100
AcDb2dVertex
 10
5.652113132130201
 20
-6.939324348670198
 30
0.0
  0
VERTEX
  5
9F
330
9D
100
AcDbEntity
  8
Layer 1
 62
   144
420
  1799611
370
    25
100
AcDbVertex
100
AcDb2dVertex
 10
6.203213087021064
 20
-6.939324348670198
 30
0.0
  0
SEQEND
  5
A0
330
9D
100
AcDbEntity
  8
Layer 1
 62
   144
420
  1799611
370
    25
  0
POLYLINE
  5
A1
330
1F
100
AcDbEntity
  8
Layer 1
 62
   144
420
  1799611
370
    25
100
AcDb2dPolyline
 66
     1
 10
0.0
 20
0.0
 30
0.0
  0
VERTEX
  5
A2
330
A1
100
AcDbEntity
  8
Layer 1
 62
   144
420
  1799611
370
    25
100
AcDbVertex
100
AcDb2dVertex
 10
5.652113132130201
 20
-6.388224393779334
 30
0.0
  0
VERTEX
  5
A3
330
A1
100
AcDbEntity
  8
Layer 1
 62
   144
420
  1799611
370
    25
100
AcDbVertex
100
AcDb2dVertex
 10
6.203213087021064
 20
-6.388224393779334
 30
0.0
  0
SEQEND
  5
A4
330
A1
100
AcDbEntity
  8
Layer 1
 62
   144
420
  1799611
370
    25
  0
POLYLINE
  5
A5
330
1F
100
AcDbEntity
  8
Layer 1
 62
   144
420
  1799611
370
    25
100
AcDb2dPolyline
 66
     1
 10
0.0
 20
0.0
 30
0.0
  0
VERTEX
  5
A6
330
A5
100
AcDbEntity
  8
Layer 1
 62
   144
420
  1799611
370
    25
100
AcDbVertex
100
AcDb2dVertex
 10
5.453213148410744
 20
-6.915724350601926
 30
0.0
  0
VERTEX
  5
A7
330
A5
100
AcDbEntity
  8
Layer 1
 62
   144
420
  1799611
370
    25
100
AcDbVertex
100
AcDb2dVertex
 10
5.453213148410744
 20
-6.939324348670198
 30
0.0
  0
SEQEND
  5
A8
330
A5
100
AcDbEntity
  8
Layer 1
 62
   144
420
  1799611
370
    25
  0
POLYLINE
  5
A9
330
1F
100
AcDbEntity
  8
Layer 1
 62
   144
420
  1799611
370
    25
100
AcDb2dPolyline
 66
     1
 10
0.0
 20
0.0
 30
0.0
  0
VERTEX
  5
AA
330
A9
100
AcDbEntity
  8
Layer 1
 62
   144
420
  1799611
370
    25
100
AcDbVertex
100
AcDb2dVertex
 10
5.482813145987898
 20
-6.915724350601926
 30
0.0
  0
VERTEX
  5
AB
330
A9
100
AcDbEntity
  8
Layer 1
 62
   144
420
  1799611
370
    25
100
AcDbVertex
100
AcDb2dVertex
 10
5.453213148410744
 20
-6.915724350601926
 30
0.0
  0
SEQEND
  5
AC
330
A9
100
AcDbEntity
  8
Layer 1
 62
   144
420
  1799611
370
    25
  0
POLYLINE
  5
AD
330
1F
100
AcDbEntity
  8
Layer 1
 62
   144
420
  1799611
370
    25
100
AcDb2dPolyline
 66
     1
 10
0.0
 20
0.0
 30
0.0
  0
VERTEX
  5
AE
330
AD
100
AcDbEntity
  8
Layer 1
 62
   144
420
  1799611
370
    25
100
AcDbVertex
100
AcDb2dVertex
 10
4.902113193519881
 20
-6.915724350601926
 30
0.0
  0
VERTEX
  5
AF
330
AD
100
AcDbEntity
  8
Layer 1
 62
   144
420
  1799611
370
    25
100
AcDbVertex
100
AcDb2dVertex
 10
4.872513195942727
 20
-6.915724350601926
 30
0.0
  0
SEQEND
  5
B0
330
AD
100
AcDbEntity
  8
Layer 1
 62
   144
420
  1799611
370
    25
  0
POLYLINE
  5
B1
330
1F
100
AcDbEntity
  8
Layer 1
 62
   144
420
  1799611
370
    25
100
AcDb2dPolyline
 66
     1
 10
0.0
 20
0.0
 30
0.0
  0
VERTEX
  5
B2
330
B1
100
AcDbEntity
  8
Layer 1
 62
   144
420
  1799611
370
    25
100
AcDbVertex
100
AcDb2dVertex
 10
4.902113193519881
 20
-6.939324348670198
 30
0.0
  0
VERTEX
  5
B3
330
B1
100
AcDbEntity
  8
Layer 1
 62
   144
420
  1799611
370
    25
100
AcDbVertex
100
AcDb2dVertex
 10
4.902113193519881
 20
-6.915724350601926
 30
0.0
  0
SEQEND
  5
B4
330
B1
100
AcDbEntity
  8
Layer 1
 62
   144
420
  1799611
370
    25
  0
POLYLINE
  5
B5
330
1F
100
AcDbEntity
  8
Layer 1
 62
   144
420
  1799611
370
    25
100
AcDb2dPolyline
 66
     1
 10
0.0
 20
0.0
 30
0.0
  0
VERTEX
  5
B6
330
B5
100
AcDbEntity
  8
Layer 1
 62
   144
420
  1799611
370
    25
100
AcDbVertex
100
AcDb2dVertex
 10
5.453213148410744
 20
-6.411824391847605
 30
0.0
  0
VERTEX
  5
B7
330
B5
100
AcDbEntity
  8
Layer 1
 62
   144
420
  1799611
370
    25
100
AcDbVertex
100
AcDb2dVertex
 10
5.482813145987898
 20
-6.411824391847605
 30
0.0
  0
SEQEND
  5
B8
330
B5
100
AcDbEntity
  8
Layer 1
 62
   144
420
  1799611
370
    25
  0
POLYLINE
  5
B9
330
1F
100
AcDbEntity
  8
Layer 1
 62
   144
420
  1799611
370
    25
100
AcDb2dPolyline
 66
     1
 10
0.0
 20
0.0
 30
0.0
  0
VERTEX
  5
BA
330
B9
100
AcDbEntity
  8
Layer 1
 62
   144
420
  1799611
370
    25
100
AcDbVertex
100
AcDb2dVertex
 10
5.453213148410744
 20
-6.388224393779334
 30
0.0
  0
VERTEX
  5
BB
330
B9
100
AcDbEntity
  8
Layer 1
 62
   144
420
  1799611
370
    25
100
AcDbVertex
100
AcDb2dVertex
 10
5.453213148410744
 20
-6.411824391847605
 30
0.0
  0
SEQEND
  5
BC
330
B9
100
AcDbEntity
  8
Layer 1
 62
   144
420
  1799611
370
    25
  0
POLYLINE
  5
BD
330
1F
100
AcDbEntity
  8
Layer 1
 62
   144
420
  1799611
370
    25
100
AcDb2dPolyline
 66
     1
 10
0.0
 20
0.0
 30
0.0
  0
VERTEX
  5
BE
330
BD
100
AcDbEntity
  8
Layer 1
 62
   144
420
  1799611
370
    25
100
AcDbVertex
100
AcDb2dVertex
 10
4.902113193519881
 20
-6.411824391847605
 30
0.0
  0
VERTEX
  5
BF
330
BD
100
AcDbEntity
  8
Layer 1
 62
   144
420
  1799611
370
    25
100
AcDbVertex
100
AcDb2dVertex
 10
4.902113193519881
 20
-6.388224393779334
 30
0.0
  0
SEQEND
  5
C0
330
BD
100
AcDbEntity
  8
Layer 1
 62
   144
420
  1799611
370
    25
  0
POLYLINE
  5
C1
330
1F
100
AcDbEntity
  8
Layer 1
 62
   144
420
  1799611
370
    25
100
AcDb2dPolyline
 66
     1
 10
0.0
 20
0.0
 30
0.0
  0
VERTEX
  5
C2
330
C1
100
AcDbEntity
  8
Layer 1
 62
   144
420
  1799611
370
    25
100
AcDbVertex
100
AcDb2dVertex
 10
4.872513195942727
 20
-6.411824391847605
 30
0.0
  0
VERTEX
  5
C3
330
C1
100
AcDbEntity
  8
Layer 1
 62
   144
420
  1799611
370
    25
100
AcDbVertex
100
AcDb2dVertex
 10
4.902113193519881
 20
-6.411824391847605
 30
0.0
  0
SEQEND
  5
C4
330
C1
100
AcDbEntity
  8
Layer 1
 62
   144
420
  1799611
370
    25
  0
POLYLINE
  5
C5
330
1F
100
AcDbEntity
  8
Layer 1
 62
   144
420
  1799611
370
    25
100
AcDb2dPolyline
 66
     1
 10
0.0
 20
0.0
 30
0.0
  0
VERTEX
  5
C6
330
C5
100
AcDbEntity
  8
Layer 1
 62
   144
420
  1799611
370
    25
100
AcDbVertex
100
AcDb2dVertex
 10
4.872513195942727
 20
-6.411824391847605
 30
0.0
  0
VERTEX
  5
C7
330
C5
100
AcDbEntity
  8
Layer 1
 62
   144
420
  1799611
370
    25
100
AcDbVertex
100
AcDb2dVertex
 10
4.872513195942727
 20
-6.915724350601926
 30
0.0
  0
SEQEND
  5
C8
330
C5
100
AcDbEntity
  8
Layer 1
 62
   144
420
  1799611
370
    25
  0
POLYLINE
  5
C9
330
1F
100
AcDbEntity
  8
Layer 1
 62
   144
420
  1799611
370
    25
100
AcDb2dPolyline
 66
     1
 10
0.0
 20
0.0
 30
0.0
  0
VERTEX
  5
CA
330
C9
100
AcDbEntity
  8
Layer 1
 62
   144
420
  1799611
370
    25
100
AcDbVertex
100
AcDb2dVertex
 10
5.482813145987898
 20
-6.411824391847605
 30
0.0
  0
VERTEX
  5
CB
330
C9
100
AcDbEntity
  8
Layer 1
 62
   144
420
  1799611
370
    25
100
AcDbVertex
100
AcDb2dVertex
 10
5.482813145987898
 20
-6.915724350601926
 30
0.0
  0
SEQEND
  5
CC
330
C9
100
AcDbEntity
  8
Layer 1
 62
   144
420
  1799611
370
    25
  0
POLYLINE
  5
CD
330
1F
100
AcDbEntity
  8
Layer 1
 62
   144
420
  1799611
370
    25
100
AcDb2dPolyline
 66
     1
 10
0.0
 20
0.0
 30
0.0
  0
VERTEX
  5
CE
330
CD
100
AcDbEntity
  8
Layer 1
 62
   144
420
  1799611
370
    25
100
AcDbVertex
100
AcDb2dVertex
 10
4.902113193519881
 20
-6.939324348670198
 30
0.0
  0
VERTEX
  5
CF
330
CD
100
AcDbEntity
  8
Layer 1
 62
   144
420
  1799611
370
    25
100
AcDbVertex
100
AcDb2dVertex
 10
5.453213148410744
 20
-6.939324348670198
 30
0.0
  0
SEQEND
  5
D0
330
CD
100
AcDbEntity
  8
Layer 1
 62
   144
420
  1799611
370
    25
  0
POLYLINE
  5
D1
330
1F
100
AcDbEntity
  8
Layer 1
 62
   144
420
  1799611
370
    25
100
AcDb2dPolyline
 66
     1
 10
0.0
 20
0.0
 30
0.0
  0
VERTEX
  5
D2
330
D1
100
AcDbEntity
  8
Layer 1
 62
   144
420
  1799611
370
    25
100
AcDbVertex
100
AcDb2dVertex
 10
4.902113193519881
 20
-6.388224393779334
 30
0.0
  0
VERTEX
  5
D3
330
D1
100
AcDbEntity
  8
Layer 1
 62
   144
420
  1799611
370
    25
100
AcDbVertex
100
AcDb2dVertex
 10
5.453213148410744
 20
-6.388224393779334
 30
0.0
  0
SEQEND
  5
D4
330
D1
100
AcDbEntity
  8
Layer 1
 62
   144
420
  1799611
370
    25
  0
POLYLINE
  5
D5
330
1F
100
AcDbEntity
  8
Layer 1
 62
   144
420
  1799611
370
    25
100
AcDb2dPolyline
 66
     1
 10
0.0
 20
0.0
 30
0.0
  0
VERTEX
  5
D6
330
D5
100
AcDbEntity
  8
Layer 1
 62
   144
420
  1799611
370
    25
100
AcDbVertex
100
AcDb2dVertex
 10
6.953213025631385
 20
-6.165724411991605
 30
0.0
  0
VERTEX
  5
D7
330
D5
100
AcDbEntity
  8
Layer 1
 62
   144
420
  1799611
370
    25
100
AcDbVertex
100
AcDb2dVertex
 10
6.953213025631385
 20
-6.189324410059877
 30
0.0
  0
SEQEND
  5
D8
330
D5
100
AcDbEntity
  8
Layer 1
 62
   144
420
  1799611
370
    25
  0
POLYLINE
  5
D9
330
1F
100
AcDbEntity
  8
Layer 1
 62
   144
420
  1799611
370
    25
100
AcDb2dPolyline
 66
     1
 10
0.0
 20
0.0
 30
0.0
  0
VERTEX
  5
DA
330
D9
100
AcDbEntity
  8
Layer 1
 62
   144
420
  1799611
370
    25
100
AcDbVertex
100
AcDb2dVertex
 10
6.982813023208538
 20
-6.165724411991605
 30
0.0
  0
VERTEX
  5
DB
330
D9
100
AcDbEntity
  8
Layer 1
 62
   144
420
  1799611
370
    25
100
AcDbVertex
100
AcDb2dVertex
 10
6.953213025631385
 20
-6.165724411991605
 30
0.0
  0
SEQEND
  5
DC
330
D9
100
AcDbEntity
  8
Layer 1
 62
   144
420
  1799611
370
    25
  0
POLYLINE
  5
DD
330
1F
100
AcDbEntity
  8
Layer 1
 62
   144
420
  1799611
370
    25
100
AcDb2dPolyline
 66
     1
 10
0.0
 20
0.0
 30
0.0
  0
VERTEX
  5
DE
330
DD
100
AcDbEntity
  8
Layer 1
 62
   144
420
  1799611
370
    25
100
AcDbVertex
100
AcDb2dVertex
 10
6.402113070740521
 20
-6.165724411991605
 30
0.0
  0
VERTEX
  5
DF
330
DD
100
AcDbEntity
  8
Layer 1
 62
   144
420
  1799611
370
    25
100
AcDbVertex
100
AcDb2dVertex
 10
6.372513073163367
 20
-6.165724411991605
 30
0.0
  0
SEQEND
  5
E0
330
DD
100
AcDbEntity
  8
Layer 1
 62
   144
420
  1799611
370
    25
  0
POLYLINE
  5
E1
330
1F
100
AcDbEntity
  8
Layer 1
 62
   144
420
  1799611
370
    25
100
AcDb2dPolyline
 66
     1
 10
0.0
 20
0.0
 30
0.0
  0
VERTEX
  5
E2
330
E1
100
AcDbEntity
  8
Layer 1
 62
   144
420
  1799611
370
    25
100
AcDbVertex
100
AcDb2dVertex
 10
6.402113070740521
 20
-6.189324410059877
 30
0.0
  0
VERTEX
  5
E3
330
E1
100
AcDbEntity
  8
Layer 1
 62
   144
420
  1799611
370
    25
100
AcDbVertex
100
AcDb2dVertex
 10
6.402113070740521
 20
-6.165724411991605
 30
0.0
  0
SEQEND
  5
E4
330
E1
100
AcDbEntity
  8
Layer 1
 62
   144
420
  1799611
370
    25
  0
POLYLINE
  5
E5
330
1F
100
AcDbEntity
  8
Layer 1
 62
   144
420
  1799611
370
    25
100
AcDb2dPolyline
 66
     1
 10
0.0
 20
0.0
 30
0.0
  0
VERTEX
  5
E6
330
E5
100
AcDbEntity
  8
Layer 1
 62
   144
420
  1799611
370
    25
100
AcDbVertex
100
AcDb2dVertex
 10
6.953213025631385
 20
-5.661824453237285
 30
0.0
  0
VERTEX
  5
E7
330
E5
100
AcDbEntity
  8
Layer 1
 62
   144
420
  1799611
370
    25
100
AcDbVertex
100
AcDb2dVertex
 10
6.982813023208538
 20
-5.661824453237285
 30
0.0
  0
SEQEND
  5
E8
330
E5
100
AcDbEntity
  8
Layer 1
 62
   144
420
  1799611
370
    25
  0
POLYLINE
  5
E9
330
1F
100
AcDbEntity
  8
Layer 1
 62
   144
420
  1799611
370
    25
100
AcDb2dPolyline
 66
     1
 10
0.0
 20
0.0
 30
0.0
  0
VERTEX
  5
EA
330
E9
100
AcDbEntity
  8
Layer 1
 62
   144
420
  1799611
370
    25
100
AcDbVertex
100
AcDb2dVertex
 10
6.953213025631385
 20
-5.638224455169014
 30
0.0
  0
VERTEX
  5
EB
330
E9
100
AcDbEntity
  8
Layer 1
 62
   144
420
  1799611
370
    25
100
AcDbVertex
100
AcDb2dVertex
 10
6.953213025631385
 20
-5.661824453237285
 30
0.0
  0
SEQEND
  5
EC
330
E9
100
AcDbEntity
  8
Layer 1
 62
   144
420
  1799611
370
    25
  0
POLYLINE
  5
ED
330
1F
100
AcDbEntity
  8
Layer 1
 62
   144
420
  1799611
370
    25
100
AcDb2dPolyline
 66
     1
 10
0.0
 20
0.0
 30
0.0
  0
VERTEX
  5
EE
330
ED
100
AcDbEntity
  8
Layer 1
 62
   144
420
  1799611
370
    25
100
AcDbVertex
100
AcDb2dVertex
 10
6.402113070740521
 20
-5.661824453237285
 30
0.0
  0
VERTEX
  5
EF
330
ED
100
AcDbEntity
  8
Layer 1
 62
   144
420
  1799611
370
    25
100
AcDbVertex
100
AcDb2dVertex
 10
6.402113070740521
 20
-5.638224455169014
 30
0.0
  0
SEQEND
  5
F0
330
ED
100
AcDbEntity
  8
Layer 1
 62
   144
420
  1799611
370
    25
  0
POLYLINE
  5
F1
330
1F
100
AcDbEntity
  8
Layer 1
 62
   144
420
  1799611
370
    25
100
AcDb2dPolyline
 66
     1
 10
0.0
 20
0.0
 30
0.0
  0
VERTEX
  5
F2
330
F1
100
AcDbEntity
  8
Layer 1
 62
   144
420
  1799611
370
    25
100
AcDbVertex
100
AcDb2dVertex
 10
6.372513073163367
 20
-5.661824453237285
 30
0.0
  0
VERTEX
  5
F3
330
F1
100
AcDbEntity
  8
Layer 1
 62
   144
420
  1799611
370
    25
100
AcDbVertex
100
AcDb2dVertex
 10
6.402113070740521
 20
-5.661824453237285
 30
0.0
  0
SEQEND
  5
F4
330
F1
100
AcDbEntity
  8
Layer 1
 62
   144
420
  1799611
370
    25
  0
POLYLINE
  5
F5
330
1F
100
AcDbEntity
  8
Layer 1
 62
   144
420
  1799611
370
    25
100
AcDb2dPolyline
 66
     1
 10
0.0
 20
0.0
 30
0.0
  0
VERTEX
  5
F6
330
F5
100
AcDbEntity
  8
Layer 1
 62
   144
420
  1799611
370
    25
100
AcDbVertex
100
AcDb2dVertex
 10
6.372513073163367
 20
-5.661824453237285
 30
0.0
  0
VERTEX
  5
F7
330
F5
100
AcDbEntity
  8
Layer 1
 62
   144
420
  1799611
370
    25
100
AcDbVertex
100
AcDb2dVertex
 10
6.372513073163367
 20
-6.165724411991605
 30
0.0
  0
SEQEND
  5
F8
330
F5
100
AcDbEntity
  8
Layer 1
 62
   144
420
  1799611
370
    25
  0
POLYLINE
  5
F9
330
1F
100
AcDbEntity
  8
Layer 1
 62
   144
420
  1799611
370
    25
100
AcDb2dPolyline
 66
     1
 10
0.0
 20
0.0
 30
0.0
  0
VERTEX
  5
FA
330
F9
100
AcDbEntity
  8
Layer 1
 62
   144
420
  1799611
370
    25
100
AcDbVertex
100
AcDb2dVertex
 10
6.982813023208538
 20
-5.661824453237285
 30
0.0
  0
VERTEX
  5
FB
330
F9
100
AcDbEntity
  8
Layer 1
 62
   144
420
  1799611
370
    25
100
AcDbVertex
100
AcDb2dVertex
 10
6.982813023208538
 20
-6.165724411991605
 30
0.0
  0
SEQEND
  5
FC
330
F9
100
AcDbEntity
  8
Layer 1
 62
   144
420
  1799611
370
    25
  0
POLYLINE
  5
FD
330
1F
100
AcDbEntity
  8
Layer 1
 62
   144
420
  1799611
370
    25
100
AcDb2dPolyline
 66
     1
 10
0.0
 20
0.0
 30
0.0
  0
VERTEX
  5
FE
330
FD
100
AcDbEntity
  8
Layer 1
 62
   144
420
  1799611
370
    25
100
AcDbVertex
100
AcDb2dVertex
 10
6.402113070740521
 20
-6.189324410059877
 30
0.0
  0
VERTEX
  5
FF
330
FD
100
AcDbEntity
  8
Layer 1
 62
   144
420
  1799611
370
    25
100
AcDbVertex
100
AcDb2dVertex
 10
6.953213025631385
 20
-6.189324410059877
 30
0.0
  0
SEQEND
  5
100
330
FD
100
AcDbEntity
  8
Layer 1
 62
   144
420
  1799611
370
    25
  0
POLYLINE
  5
101
330
1F
100
AcDbEntity
  8
Layer 1
 62
   144
420
  1799611
370
    25
100
AcDb2dPolyline
 66
     1
 10
0.0
 20
0.0
 30
0.0
  0
VERTEX
  5
102
330
101
100
AcDbEntity
  8
Layer 1
 62
   144
420
  1799611
370
    25
100
AcDbVertex
100
AcDb2dVertex
 10
6.402113070740521
 20
-5.638224455169014
 30
0.0
  0
VERTEX
  5
103
330
101
100
AcDbEntity
  8
Layer 1
 62
   144
420
  1799611
370
    25
100
AcDbVertex
100
AcDb2dVertex
 10
6.953213025631385
 20
-5.638224455169014
 30
0.0
  0
SEQEND
  5
104
330
101
100
AcDbEntity
  8
Layer 1
 62
   144
420
  1799611
370
    25
  0
POLYLINE
  5
105
330
1F
100
AcDbEntity
  8
Layer 1
 62
   144
420
  1799611
370
    25
100
AcDb2dPolyline
 66
     1
 10
0.0
 20
0.0
 30
0.0
  0
VERTEX
  5
106
330
105
100
AcDbEntity
  8
Layer 1
 62
   144
420
  1799611
370
    25
100
AcDbVertex
100
AcDb2dVertex
 10
6.203213087021064
 20
-6.165724411991605
 30
0.0
  0
VERTEX
  5
107
330
105
100
AcDbEntity
  8
Layer 1
 62
   144
420
  1799611
370
    25
100
AcDbVertex
100
AcDb2dVertex
 10
6.203213087021064
 20
-6.189324410059877
 30
0.0
  0
SEQEND
  5
108
330
105
100
AcDbEntity
  8
Layer 1
 62
   144
420
  1799611
370
    25
  0
POLYLINE
  5
109
330
1F
100
AcDbEntity
  8
Layer 1
 62
   144
420
  1799611
370
    25
100
AcDb2dPolyline
 66
     1
 10
0.0
 20
0.0
 30
0.0
  0
VERTEX
  5
10A
330
109
100
AcDbEntity
  8
Layer 1
 62
   144
420
  1799611
370
    25
100
AcDbVertex
100
AcDb2dVertex
 10
6.232813084598218
 20
-6.165724411991605
 30
0.0
  0
VERTEX
  5
10B
330
109
100
AcDbEntity
  8
Layer 1
 62
   144
420
  1799611
370
    25
100
AcDbVertex
100
AcDb2dVertex
 10
6.203213087021064
 20
-6.165724411991605
 30
0.0
  0
SEQEND
  5
10C
330
109
100
AcDbEntity
  8
Layer 1
 62
   144
420
  1799611
370
    25
  0
POLYLINE
  5
10D
330
1F
100
AcDbEntity
  8
Layer 1
 62
   144
420
  1799611
370
    25
100
AcDb2dPolyline
 66
     1
 10
0.0
 20
0.0
 30
0.0
  0
VERTEX
  5
10E
330
10D
100
AcDbEntity
  8
Layer 1
 62
   144
420
  1799611
370
    25
100
AcDbVertex
100
AcDb2dVertex
 10
5.652113132130201
 20
-6.165724411991605
 30
0.0
  0
VERTEX
  5
10F
330
10D
100
AcDbEntity
  8
Layer 1
 62
   144
420
  1799611
370
    25
100
AcDbVertex
100
AcDb2dVertex
 10
5.622513134553047
 20
-6.165724411991605
 30
0.0
  0
SEQEND
  5
110
330
10D
100
AcDbEntity
  8
Layer 1
 62
   144
420
  1799611
370
    25
  0
POLYLINE
  5
111
330
1F
100
AcDbEntity
  8
Layer 1
 62
   144
420
  1799611
370
    25
100
AcDb2dPolyline
 66
     1
 10
0.0
 20
0.0
 30
0.0
  0
VERTEX
  5
112
330
111
100
AcDbEntity
  8
Layer 1
 62
   144
420
  1799611
370
    25
100
AcDbVertex
100
AcDb2dVertex
 10
5.652113132130201
 20
-6.189324410059877
 30
0.0
  0
VERTEX
  5
113
330
111
100
AcDbEntity
  8
Layer 1
 62
   144
420
  1799611
370
    25
100
AcDbVertex
100
AcDb2dVertex
 10
5.652113132130201
 20
-6.165724411991605
 30
0.0
  0
SEQEND
  5
114
330
111
100
AcDbEntity
  8
Layer 1
 62
   144
420
  1799611
370
    25
  0
POLYLINE
  5
115
330
1F
100
AcDbEntity
  8
Layer 1
 62
   144
420
  1799611
370
    25
100
AcDb2dPolyline
 66
     1
 10
0.0
 20
0.0
 30
0.0
  0
VERTEX
  5
116
330
115
100
AcDbEntity
  8
Layer 1
 62
   144
420
  1799611
370
    25
100
AcDbVertex
100
AcDb2dVertex
 10
6.203213087021064
 20
-5.661824453237285
 30
0.0
  0
VERTEX
  5
117
330
115
100
AcDbEntity
  8
Layer 1
 62
   144
420
  1799611
370
    25
100
AcDbVertex
100
AcDb2dVertex
 10
6.232813084598218
 20
-5.661824453237285
 30
0.0
  0
SEQEND
  5
118
330
115
100
AcDbEntity
  8
Layer 1
 62
   144
420
  1799611
370
    25
  0
POLYLINE
  5
119
330
1F
100
AcDbEntity
  8
Layer 1
 62
   144
420
  1799611
370
    25
100
AcDb2dPolyline
 66
     1
 10
0.0
 20
0.0
 30
0.0
  0
VERTEX
  5
11A
330
119
100
AcDbEntity
  8
Layer 1
 62
   144
420
  1799611
370
    25
100
AcDbVertex
100
AcDb2dVertex
 10
6.203213087021064
 20
-5.638224455169014
 30
0.0
  0
VERTEX
  5
11B
330
119
100
AcDbEntity
  8
Layer 1
 62
   144
420
  1799611
370
    25
100
AcDbVertex
100
AcDb2dVertex
 10
6.203213087021064
 20
-5.661824453237285
 30
0.0
  0
SEQEND
  5
11C
330
119
100
AcDbEntity
  8
Layer 1
 62
   144
420
  1799611
370
    25
  0
POLYLINE
  5
11D
330
1F
100
AcDbEntity
  8
Layer 1
 62
   144
420
  1799611
370
    25
100
AcDb2dPolyline
 66
     1
 10
0.0
 20
0.0
 30
0.0
  0
VERTEX
  5
11E
330
11D
100
AcDbEntity
  8
Layer 1
 62
   144
420
  1799611
370
    25
100
AcDbVertex
100
AcDb2dVertex
 10
5.652113132130201
 20
-5.661824453237285
 30
0.0
  0
VERTEX
  5
11F
330
11D
100
AcDbEntity
  8
Layer 1
 62
   144
420
  1799611
370
    25
100
AcDbVertex
100
AcDb2dVertex
 10
5.652113132130201
 20
-5.638224455169014
 30
0.0
  0
SEQEND
  5
120
330
11D
100
AcDbEntity
  8
Layer 1
 62
   144
420
  1799611
370
    25
  0
POLYLINE
  5
121
330
1F
100
AcDbEntity
  8
Layer 1
 62
   144
420
  1799611
370
    25
100
AcDb2dPolyline
 66
     1
 10
0.0
 20
0.0
 30
0.0
  0
VERTEX
  5
122
330
121
100
AcDbEntity
  8
Layer 1
 62
   144
420
  1799611
370
    25
100
AcDbVertex
100
AcDb2dVertex
 10
5.622513134553047
 20
-5.661824453237285
 30
0.0
  0
VERTEX
  5
123
330
121
100
AcDbEntity
  8
Layer 1
 62
   144
420
  1799611
370
    25
100
AcDbVertex
100
AcDb2dVertex
 10
5.652113132130201
 20
-5.661824453237285
 30
0.0
  0
SEQEND
  5
124
330
121
100
AcDbEntity
  8
Layer 1
 62
   144
420
  1799611
370
    25
  0
POLYLINE
  5
125
330
1F
100
AcDbEntity
  8
Layer 1
 62
   144
420
  1799611
370
    25
100
AcDb2dPolyline
 66
     1
 10
0.0
 20
0.0
 30
0.0
  0
VERTEX
  5
126
330
125
100
AcDbEntity
  8
Layer 1
 62
   144
420
  1799611
370
    25
100
AcDbVertex
100
AcDb2dVertex
 10
5.622513134553047
 20
-5.661824453237285
 30
0.0
  0
VERTEX
  5
127
330
125
100
AcDbEntity
  8
Layer 1
 62
   144
420
  1799611
370
    25
100
AcDbVertex
100
AcDb2dVertex
 10
5.622513134553047
 20
-6.165724411991605
 30
0.0
  0
SEQEND
  5
128
330
125
100
AcDbEntity
  8
Layer 1
 62
   144
420
  1799611
370
    25
  0
POLYLINE
  5
129
330
1F
100
AcDbEntity
  8
Layer 1
 62
   144
420
  1799611
370
    25
100
AcDb2dPolyline
 66
     1
 10
0.0
 20
0.0
 30
0.0
  0
VERTEX
  5
12A
330
129
100
AcDbEntity
  8
Layer 1
 62
   144
420
  1799611
370
    25
100
AcDbVertex
100
AcDb2dVertex
 10
6.232813084598218
 20
-5.661824453237285
 30
0.0
  0
VERTEX
  5
12B
330
129
100
AcDbEntity
  8
Layer 1
 62
   144
420
  1799611
370
    25
100
AcDbVertex
100
AcDb2dVertex
 10
6.232813084598218
 20
-6.165724411991605
 30
0.0
  0
SEQEND
  5
12C
330
129
100
AcDbEntity
  8
Layer 1
 62
   144
420
  1799611
370
    25
  0
POLYLINE
  5
12D
330
1F
100
AcDbEntity
  8
Layer 1
 62
   144
420
  1799611
370
    25
100
AcDb2dPolyline
 66
     1
 10
0.0
 20
0.0
 30
0.0
  0
VERTEX
  5
12E
330
12D
100
AcDbEntity
  8
Layer 1
 62
   144
420
  1799611
370
    25
100
AcDbVertex
100
AcDb2dVertex
 10
5.652113132130201
 20
-6.189324410059877
 30
0.0
  0
VERTEX
  5
12F
330
12D
100
AcDbEntity
  8
Layer 1
 62
   144
420
  1799611
370
    25
100
AcDbVertex
100
AcDb2dVertex
 10
6.203213087021064
 20
-6.189324410059877
 30
0.0
  0
SEQEND
  5
130
330
12D
100
AcDbEntity
  8
Layer 1
 62
   144
420
  1799611
370
    25
  0
POLYLINE
  5
131
330
1F
100
AcDbEntity
  8
Layer 1
 62
   144
420
  1799611
370
    25
100
AcDb2dPolyline
 66
     1
 10
0.0
 20
0.0
 30
0.0
  0
VERTEX
  5
132
330
131
100
AcDbEntity
  8
Layer 1
 62
   144
420
  1799611
370
    25
100
AcDbVertex
100
AcDb2dVertex
 10
5.652113132130201
 20
-5.638224455169014
 30
0.0
  0
VERTEX
  5
133
330
131
100
AcDbEntity
  8
Layer 1
 62
   144
420
  1799611
370
    25
100
AcDbVertex
100
AcDb2dVertex
 10
6.203213087021064
 20
-5.638224455169014
 30
0.0
  0
SEQEND
  5
134
330
131
100
AcDbEntity
  8
Layer 1
 62
   144
420
  1799611
370
    25
  0
POLYLINE
  5
135
330
1F
100
AcDbEntity
  8
Layer 1
 62
   144
420
  1799611
370
    25
100
AcDb2dPolyline
 66
     1
 10
0.0
 20
0.0
 30
0.0
  0
VERTEX
  5
136
330
135
100
AcDbEntity
  8
Layer 1
 62
   144
420
  1799611
370
    25
100
AcDbVertex
100
AcDb2dVertex
 10
5.453213148410744
 20
-6.165724411991605
 30
0.0
  0
VERTEX
  5
137
330
135
100
AcDbEntity
  8
Layer 1
 62
   144
420
  1799611
370
    25
100
AcDbVertex
100
AcDb2dVertex
 10
5.453213148410744
 20
-6.189324410059877
 30
0.0
  0
SEQEND
  5
138
330
135
100
AcDbEntity
  8
Layer 1
 62
   144
420
  1799611
370
    25
  0
POLYLINE
  5
139
330
1F
100
AcDbEntity
  8
Layer 1
 62
   144
420
  1799611
370
    25
100
AcDb2dPolyline
 66
     1
 10
0.0
 20
0.0
 30
0.0
  0
VERTEX
  5
13A
330
139
100
AcDbEntity
  8
Layer 1
 62
   144
420
  1799611
370
    25
100
AcDbVertex
100
AcDb2dVertex
 10
5.482813145987898
 20
-6.165724411991605
 30
0.0
  0
VERTEX
  5
13B
330
139
100
AcDbEntity
  8
Layer 1
 62
   144
420
  1799611
370
    25
100
AcDbVertex
100
AcDb2dVertex
 10
5.453213148410744
 20
-6.165724411991605
 30
0.0
  0
SEQEND
  5
13C
330
139
100
AcDbEntity
  8
Layer 1
 62
   144
420
  1799611
370
    25
  0
POLYLINE
  5
13D
330
1F
100
AcDbEntity
  8
Layer 1
 62
   144
420
  1799611
370
    25
100
AcDb2dPolyline
 66
     1
 10
0.0
 20
0.0
 30
0.0
  0
VERTEX
  5
13E
330
13D
100
AcDbEntity
  8
Layer 1
 62
   144
420
  1799611
370
    25
100
AcDbVertex
100
AcDb2dVertex
 10
4.902113193519881
 20
-6.165724411991605
 30
0.0
  0
VERTEX
  5
13F
330
13D
100
AcDbEntity
  8
Layer 1
 62
   144
420
  1799611
370
    25
100
AcDbVertex
100
AcDb2dVertex
 10
4.872513195942727
 20
-6.165724411991605
 30
0.0
  0
SEQEND
  5
140
330
13D
100
AcDbEntity
  8
Layer 1
 62
   144
420
  1799611
370
    25
  0
POLYLINE
  5
141
330
1F
100
AcDbEntity
  8
Layer 1
 62
   144
420
  1799611
370
    25
100
AcDb2dPolyline
 66
     1
 10
0.0
 20
0.0
 30
0.0
  0
VERTEX
  5
142
330
141
100
AcDbEntity
  8
Layer 1
 62
   144
420
  1799611
370
    25
100
AcDbVertex
100
AcDb2dVertex
 10
4.902113193519881
 20
-6.189324410059877
 30
0.0
  0
VERTEX
  5
143
330
141
100
AcDbEntity
  8
Layer 1
 62
   144
420
  1799611
370
    25
100
AcDbVertex
100
AcDb2dVertex
 10
4.902113193519881
 20
-6.165724411991605
 30
0.0
  0
SEQEND
  5
144
330
141
100
AcDbEntity
  8
Layer 1
 62
   144
420
  1799611
370
    25
  0
POLYLINE
  5
145
330
1F
100
AcDbEntity
  8
Layer 1
 62
   144
420
  1799611
370
    25
100
AcDb2dPolyline
 66
     1
 10
0.0
 20
0.0
 30
0.0
  0
VERTEX
  5
146
330
145
100
AcDbEntity
  8
Layer 1
 62
   144
420
  1799611
370
    25
100
AcDbVertex
100
AcDb2dVertex
 10
5.453213148410744
 20
-5.661824453237285
 30
0.0
  0
VERTEX
  5
147
330
145
100
AcDbEntity
  8
Layer 1
 62
   144
420
  1799611
370
    25
100
AcDbVertex
100
AcDb2dVertex
 10
5.482813145987898
 20
-5.661824453237285
 30
0.0
  0
SEQEND
  5
148
330
145
100
AcDbEntity
  8
Layer 1
 62
   144
420
  1799611
370
    25
  0
POLYLINE
  5
149
330
1F
100
AcDbEntity
  8
Layer 1
 62
   144
420
  1799611
370
    25
100
AcDb2dPolyline
 66
     1
 10
0.0
 20
0.0
 30
0.0
  0
VERTEX
  5
14A
330
149
100
AcDbEntity
  8
Layer 1
 62
   144
420
  1799611
370
    25
100
AcDbVertex
100
AcDb2dVertex
 10
5.453213148410744
 20
-5.638224455169014
 30
0.0
  0
VERTEX
  5
14B
330
149
100
AcDbEntity
  8
Layer 1
 62
   144
420
  1799611
370
    25
100
AcDbVertex
100
AcDb2dVertex
 10
5.453213148410744
 20
-5.661824453237285
 30
0.0
  0
SEQEND
  5
14C
330
149
100
AcDbEntity
  8
Layer 1
 62
   144
420
  1799611
370
    25
  0
POLYLINE
  5
14D
330
1F
100
AcDbEntity
  8
Layer 1
 62
   144
420
  1799611
370
    25
100
AcDb2dPolyline
 66
     1
 10
0.0
 20
0.0
 30
0.0
  0
VERTEX
  5
14E
330
14D
100
AcDbEntity
  8
Layer 1
 62
   144
420
  1799611
370
    25
100
AcDbVertex
100
AcDb2dVertex
 10
4.902113193519881
 20
-5.661824453237285
 30
0.0
  0
VERTEX
  5
14F
330
14D
100
AcDbEntity
  8
Layer 1
 62
   144
420
  1799611
370
    25
100
AcDbVertex
100
AcDb2dVertex
 10
4.902113193519881
 20
-5.638224455169014
 30
0.0
  0
SEQEND
  5
150
330
14D
100
AcDbEntity
  8
Layer 1
 62
   144
420
  1799611
370
    25
  0
POLYLINE
  5
151
330
1F
100
AcDbEntity
  8
Layer 1
 62
   144
420
  1799611
370
    25
100
AcDb2dPolyline
 66
     1
 10
0.0
 20
0.0
 30
0.0
  0
VERTEX
  5
152
330
151
100
AcDbEntity
  8
Layer 1
 62
   144
420
  1799611
370
    25
100
AcDbVertex
100
AcDb2dVertex
 10
4.872513195942727
 20
-5.661824453237285
 30
0.0
  0
VERTEX
  5
153
330
151
100
AcDbEntity
  8
Layer 1
 62
   144
420
  1799611
370
    25
100
AcDbVertex
100
AcDb2dVertex
 10
4.902113193519881
 20
-5.661824453237285
 30
0.0
  0
SEQEND
  5
154
330
151
100
AcDbEntity
  8
Layer 1
 62
   144
420
  1799611
370
    25
  0
POLYLINE
  5
155
330
1F
100
AcDbEntity
  8
Layer 1
 62
   144
420
  1799611
370
    25
100
AcDb2dPolyline
 66
     1
 10
0.0
 20
0.0
 30
0.0
  0
VERTEX
  5
156
330
155
100
AcDbEntity
  8
Layer 1
 62
   144
420
  1799611
370
    25
100
AcDbVertex
100
AcDb2dVertex
 10
4.872513195942727
 20
-5.661824453237285
 30
0.0
  0
VERTEX
  5
157
330
155
100
AcDbEntity
  8
Layer 1
 62
   144
420
  1799611
370
    25
100
AcDbVertex
100
AcDb2dVertex
 10
4.872513195942727
 20
-6.165724411991605
 30
0.0
  0
SEQEND
  5
158
330
155
100
AcDbEntity
  8
Layer 1
 62
   144
420
  1799611
370
    25
  0
POLYLINE
  5
159
330
1F
100
AcDbEntity
  8
Layer 1
 62
   144
420
  1799611
370
    25
100
AcDb2dPolyline
 66
     1
 10
0.0
 20
0.0
 30
0.0
  0
VERTEX
  5
15A
330
159
100
AcDbEntity
  8
Layer 1
 62
   144
420
  1799611
370
    25
100
AcDbVertex
100
AcDb2dVertex
 10
5.482813145987898
 20
-5.661824453237285
 30
0.0
  0
VERTEX
  5
15B
330
159
100
AcDbEntity
  8
Layer 1
 62
   144
420
  1799611
370
    25
100
AcDbVertex
100
AcDb2dVertex
 10
5.482813145987898
 20
-6.165724411991605
 30
0.0
  0
SEQEND
  5
15C
330
159
100
AcDbEntity
  8
Layer 1
 62
   144
420
  1799611
370
    25
  0
POLYLINE
  5
15D
330
1F
100
AcDbEntity
  8
Layer 1
 62
   144
420
  1799611
370
    25
100
AcDb2dPolyline
 66
     1
 10
0.0
 20
0.0
 30
0.0
  0
VERTEX
  5
15E
330
15D
100
AcDbEntity
  8
Layer 1
 62
   144
420
  1799611
370
    25
100
AcDbVertex
100
AcDb2dVertex
 10
4.902113193519881
 20
-6.189324410059877
 30
0.0
  0
VERTEX
  5
15F
330
15D
100
AcDbEntity
  8
Layer 1
 62
   144
420
  1799611
370
    25
100
AcDbVertex
100
AcDb2dVertex
 10
5.453213148410744
 20
-6.189324410059877
 30
0.0
  0
SEQEND
  5
160
330
15D
100
AcDbEntity
  8
Layer 1
 62
   144
420
  1799611
370
    25
  0
POLYLINE
  5
161
330
1F
100
AcDbEntity
  8
Layer 1
 62
   144
420
  1799611
370
    25
100
AcDb2dPolyline
 66
     1
 10
0.0
 20
0.0
 30
0.0
  0
VERTEX
  5
162
330
161
100
AcDbEntity
  8
Layer 1
 62
   144
420
  1799611
370
    25
100
AcDbVertex
100
AcDb2dVertex
 10
4.902113193519881
 20
-5.638224455169014
 30
0.0
  0
VERTEX
  5
163
330
161
100
AcDbEntity
  8
Layer 1
 62
   144
420
  1799611
370
    25
100
AcDbVertex
100
AcDb2dVertex
 10
5.453213148410744
 20
-5.638224455169014
 30
0.0
  0
SEQEND
  5
164
330
161
100
AcDbEntity
  8
Layer 1
 62
   144
420
  1799611
370
    25
  0
POLYLINE
  5
165
330
1F
100
AcDbEntity
  8
Layer 1
 62
   144
420
  1799611
370
    25
100
AcDb2dPolyline
 66
     1
 10
0.0
 20
0.0
 30
0.0
  0
VERTEX
  5
166
330
165
100
AcDbEntity
  8
Layer 1
 62
   144
420
  1799611
370
    25
100
AcDbVertex
100
AcDb2dVertex
 10
6.953213025631385
 20
-5.415724473381285
 30
0.0
  0
VERTEX
  5
167
330
165
100
AcDbEntity
  8
Layer 1
 62
   144
420
  1799611
370
    25
100
AcDbVertex
100
AcDb2dVertex
 10
6.953213025631385
 20
-5.439324471449557
 30
0.0
  0
SEQEND
  5
168
330
165
100
AcDbEntity
  8
Layer 1
 62
   144
420
  1799611
370
    25
  0
POLYLINE
  5
169
330
1F
100
AcDbEntity
  8
Layer 1
 62
   144
420
  1799611
370
    25
100
AcDb2dPolyline
 66
     1
 10
0.0
 20
0.0
 30
0.0
  0
VERTEX
  5
16A
330
169
100
AcDbEntity
  8
Layer 1
 62
   144
420
  1799611
370
    25
100
AcDbVertex
100
AcDb2dVertex
 10
6.982813023208538
 20
-5.415724473381285
 30
0.0
  0
VERTEX
  5
16B
330
169
100
AcDbEntity
  8
Layer 1
 62
   144
420
  1799611
370
    25
100
AcDbVertex
100
AcDb2dVertex
 10
6.953213025631385
 20
-5.415724473381285
 30
0.0
  0
SEQEND
  5
16C
330
169
100
AcDbEntity
  8
Layer 1
 62
   144
420
  1799611
370
    25
  0
POLYLINE
  5
16D
330
1F
100
AcDbEntity
  8
Layer 1
 62
   144
420
  1799611
370
    25
100
AcDb2dPolyline
 66
     1
 10
0.0
 20
0.0
 30
0.0
  0
VERTEX
  5
16E
330
16D
100
AcDbEntity
  8
Layer 1
 62
   144
420
  1799611
370
    25
100
AcDbVertex
100
AcDb2dVertex
 10
6.402113070740521
 20
-5.415724473381285
 30
0.0
  0
VERTEX
  5
16F
330
16D
100
AcDbEntity
  8
Layer 1
 62
   144
420
  1799611
370
    25
100
AcDbVertex
100
AcDb2dVertex
 10
6.372513073163367
 20
-5.415724473381285
 30
0.0
  0
SEQEND
  5
170
330
16D
100
AcDbEntity
  8
Layer 1
 62
   144
420
  1799611
370
    25
  0
POLYLINE
  5
171
330
1F
100
AcDbEntity
  8
Layer 1
 62
   144
420
  1799611
370
    25
100
AcDb2dPolyline
 66
     1
 10
0.0
 20
0.0
 30
0.0
  0
VERTEX
  5
172
330
171
100
AcDbEntity
  8
Layer 1
 62
   144
420
  1799611
370
    25
100
AcDbVertex
100
AcDb2dVertex
 10
6.402113070740521
 20
-5.439324471449557
 30
0.0
  0
VERTEX
  5
173
330
171
100
AcDbEntity
  8
Layer 1
 62
   144
420
  1799611
370
    25
100
AcDbVertex
100
AcDb2dVertex
 10
6.402113070740521
 20
-5.415724473381285
 30
0.0
  0
SEQEND
  5
174
330
171
100
AcDbEntity
  8
Layer 1
 62
   144
420
  1799611
370
    25
  0
POLYLINE
  5
175
330
1F
100
AcDbEntity
  8
Layer 1
 62
   144
420
  1799611
370
    25
100
AcDb2dPolyline
 66
     1
 10
0.0
 20
0.0
 30
0.0
  0
VERTEX
  5
176
330
175
100
AcDbEntity
  8
Layer 1
 62
   144
420
  1799611
370
    25
100
AcDbVertex
100
AcDb2dVertex
 10
6.953213025631385
 20
-4.911824514626965
 30
0.0
  0
VERTEX
  5
177
330
175
100
AcDbEntity
  8
Layer 1
 62
   144
420
  1799611
370
    25
100
AcDbVertex
100
AcDb2dVertex
 10
6.982813023208538
 20
-4.911824514626965
 30
0.0
  0
SEQEND
  5
178
330
175
100
AcDbEntity
  8
Layer 1
 62
   144
420
  1799611
370
    25
  0
POLYLINE
  5
179
330
1F
100
AcDbEntity
  8
Layer 1
 62
   144
420
  1799611
370
    25
100
AcDb2dPolyline
 66
     1
 10
0.0
 20
0.0
 30
0.0
  0
VERTEX
  5
17A
330
179
100
AcDbEntity
  8
Layer 1
 62
   144
420
  1799611
370
    25
100
AcDbVertex
100
AcDb2dVertex
 10
6.953213025631385
 20
-4.888224516558694
 30
0.0
  0
VERTEX
  5
17B
330
179
100
AcDbEntity
  8
Layer 1
 62
   144
420
  1799611
370
    25
100
AcDbVertex
100
AcDb2dVertex
 10
6.953213025631385
 20
-4.911824514626965
 30
0.0
  0
SEQEND
  5
17C
330
179
100
AcDbEntity
  8
Layer 1
 62
   144
420
  1799611
370
    25
  0
POLYLINE
  5
17D
330
1F
100
AcDbEntity
  8
Layer 1
 62
   144
420
  1799611
370
    25
100
AcDb2dPolyline
 66
     1
 10
0.0
 20
0.0
 30
0.0
  0
VERTEX
  5
17E
330
17D
100
AcDbEntity
  8
Layer 1
 62
   144
420
  1799611
370
    25
100
AcDbVertex
100
AcDb2dVertex
 10
6.402113070740521
 20
-4.911824514626965
 30
0.0
  0
VERTEX
  5
17F
330
17D
100
AcDbEntity
  8
Layer 1
 62
   144
420
  1799611
370
    25
100
AcDbVertex
100
AcDb2dVertex
 10
6.402113070740521
 20
-4.888224516558694
 30
0.0
  0
SEQEND
  5
180
330
17D
100
AcDbEntity
  8
Layer 1
 62
   144
420
  1799611
370
    25
  0
POLYLINE
  5
181
330
1F
100
AcDbEntity
  8
Layer 1
 62
   144
420
  1799611
370
    25
100
AcDb2dPolyline
 66
     1
 10
0.0
 20
0.0
 30
0.0
  0
VERTEX
  5
182
330
181
100
AcDbEntity
  8
Layer 1
 62
   144
420
  1799611
370
    25
100
AcDbVertex
100
AcDb2dVertex
 10
6.372513073163367
 20
-4.911824514626965
 30
0.0
  0
VERTEX
  5
183
330
181
100
AcDbEntity
  8
Layer 1
 62
   144
420
  1799611
370
    25
100
AcDbVertex
100
AcDb2dVertex
 10
6.402113070740521
 20
-4.911824514626965
 30
0.0
  0
SEQEND
  5
184
330
181
100
AcDbEntity
  8
Layer 1
 62
   144
420
  1799611
370
    25
  0
POLYLINE
  5
185
330
1F
100
AcDbEntity
  8
Layer 1
 62
   144
420
  1799611
370
    25
100
AcDb2dPolyline
 66
     1
 10
0.0
 20
0.0
 30
0.0
  0
VERTEX
  5
186
330
185
100
AcDbEntity
  8
Layer 1
 62
   144
420
  1799611
370
    25
100
AcDbVertex
100
AcDb2dVertex
 10
6.372513073163367
 20
-4.911824514626965
 30
0.0
  0
VERTEX
  5
187
330
185
100
AcDbEntity
  8
Layer 1
 62
   144
420
  1799611
370
    25
100
AcDbVertex
100
AcDb2dVertex
 10
6.372513073163367
 20
-5.415724473381285
 30
0.0
  0
SEQEND
  5
188
330
185
100
AcDbEntity
  8
Layer 1
 62
   144
420
  1799611
370
    25
  0
POLYLINE
  5
189
330
1F
100
AcDbEntity
  8
Layer 1
 62
   144
420
  1799611
370
    25
100
AcDb2dPolyline
 66
     1
 10
0.0
 20
0.0
 30
0.0
  0
VERTEX
  5
18A
330
189
100
AcDbEntity
  8
Layer 1
 62
   144
420
  1799611
370
    25
100
AcDbVertex
100
AcDb2dVertex
 10
6.982813023208538
 20
-4.911824514626965
 30
0.0
  0
VERTEX
  5
18B
330
189
100
AcDbEntity
  8
Layer 1
 62
   144
420
  1799611
370
    25
100
AcDbVertex
100
AcDb2dVertex
 10
6.982813023208538
 20
-5.415724473381285
 30
0.0
  0
SEQEND
  5
18C
330
189
100
AcDbEntity
  8
Layer 1
 62
   144
420
  1799611
370
    25
  0
POLYLINE
  5
18D
330
1F
100
AcDbEntity
  8
Layer 1
 62
   144
420
  1799611
370
    25
100
AcDb2dPolyline
 66
     1
 10
0.0
 20
0.0
 30
0.0
  0
VERTEX
  5
18E
330
18D
100
AcDbEntity
  8
Layer 1
 62
   144
420
  1799611
370
    25
100
AcDbVertex
100
AcDb2dVertex
 10
6.402113070740521
 20
-5.439324471449557
 30
0.0
  0
VERTEX
  5
18F
330
18D
100
AcDbEntity
  8
Layer 1
 62
   144
420
  1799611
370
    25
100
AcDbVertex
100
AcDb2dVertex
 10
6.953213025631385
 20
-5.439324471449557
 30
0.0
  0
SEQEND
  5
190
330
18D
100
AcDbEntity
  8
Layer 1
 62
   144
420
  1799611
370
    25
  0
POLYLINE
  5
191
330
1F
100
AcDbEntity
  8
Layer 1
 62
   144
420
  1799611
370
    25
100
AcDb2dPolyline
 66
     1
 10
0.0
 20
0.0
 30
0.0
  0
VERTEX
  5
192
330
191
100
AcDbEntity
  8
Layer 1
 62
   144
420
  1799611
370
    25
100
AcDbVertex
100
AcDb2dVertex
 10
6.402113070740521
 20
-4.888224516558694
 30
0.0
  0
VERTEX
  5
193
330
191
100
AcDbEntity
  8
Layer 1
 62
   144
420
  1799611
370
    25
100
AcDbVertex
100
AcDb2dVertex
 10
6.953213025631385
 20
-4.888224516558694
 30
0.0
  0
SEQEND
  5
194
330
191
100
AcDbEntity
  8
Layer 1
 62
   144
420
  1799611
370
    25
  0
POLYLINE
  5
195
330
1F
100
AcDbEntity
  8
Layer 1
 62
   144
420
  1799611
370
    25
100
AcDb2dPolyline
 66
     1
 10
0.0
 20
0.0
 30
0.0
  0
VERTEX
  5
196
330
195
100
AcDbEntity
  8
Layer 1
 62
   144
420
  1799611
370
    25
100
AcDbVertex
100
AcDb2dVertex
 10
6.203213087021064
 20
-5.415724473381285
 30
0.0
  0
VERTEX
  5
197
330
195
100
AcDbEntity
  8
Layer 1
 62
   144
420
  1799611
370
    25
100
AcDbVertex
100
AcDb2dVertex
 10
6.203213087021064
 20
-5.439324471449557
 30
0.0
  0
SEQEND
  5
198
330
195
100
AcDbEntity
  8
Layer 1
 62
   144
420
  1799611
370
    25
  0
POLYLINE
  5
199
330
1F
100
AcDbEntity
  8
Layer 1
 62
   144
420
  1799611
370
    25
100
AcDb2dPolyline
 66
     1
 10
0.0
 20
0.0
 30
0.0
  0
VERTEX
  5
19A
330
199
100
AcDbEntity
  8
Layer 1
 62
   144
420
  1799611
370
    25
100
AcDbVertex
100
AcDb2dVertex
 10
6.232813084598218
 20
-5.415724473381285
 30
0.0
  0
VERTEX
  5
19B
330
199
100
AcDbEntity
  8
Layer 1
 62
   144
420
  1799611
370
    25
100
AcDbVertex
100
AcDb2dVertex
 10
6.203213087021064
 20
-5.415724473381285
 30
0.0
  0
SEQEND
  5
19C
330
199
100
AcDbEntity
  8
Layer 1
 62
   144
420
  1799611
370
    25
  0
POLYLINE
  5
19D
330
1F
100
AcDbEntity
  8
Layer 1
 62
   144
420
  1799611
370
    25
100
AcDb2dPolyline
 66
     1
 10
0.0
 20
0.0
 30
0.0
  0
VERTEX
  5
19E
330
19D
100
AcDbEntity
  8
Layer 1
 62
   144
420
  1799611
370
    25
100
AcDbVertex
100
AcDb2dVertex
 10
5.652113132130201
 20
-5.415724473381285
 30
0.0
  0
VERTEX
  5
19F
330
19D
100
AcDbEntity
  8
Layer 1
 62
   144
420
  1799611
370
    25
100
AcDbVertex
100
AcDb2dVertex
 10
5.622513134553047
 20
-5.415724473381285
 30
0.0
  0
SEQEND
  5
1A0
330
19D
100
AcDbEntity
  8
Layer 1
 62
   144
420
  1799611
370
    25
  0
POLYLINE
  5
1A1
330
1F
100
AcDbEntity
  8
Layer 1
 62
   144
420
  1799611
370
    25
100
AcDb2dPolyline
 66
     1
 10
0.0
 20
0.0
 30
0.0
  0
VERTEX
  5
1A2
330
1A1
100
AcDbEntity
  8
Layer 1
 62
   144
420
  1799611
370
    25
100
AcDbVertex
100
AcDb2dVertex
 10
5.652113132130201
 20
-5.439324471449557
 30
0.0
  0
VERTEX
  5
1A3
330
1A1
100
AcDbEntity
  8
Layer 1
 62
   144
420
  1799611
370
    25
100
AcDbVertex
100
AcDb2dVertex
 10
5.652113132130201
 20
-5.415724473381285
 30
0.0
  0
SEQEND
  5
1A4
330
1A1
100
AcDbEntity
  8
Layer 1
 62
   144
420
  1799611
370
    25
  0
POLYLINE
  5
1A5
330
1F
100
AcDbEntity
  8
Layer 1
 62
   144
420
  1799611
370
    25
100
AcDb2dPolyline
 66
     1
 10
0.0
 20
0.0
 30
0.0
  0
VERTEX
  5
1A6
330
1A5
100
AcDbEntity
  8
Layer 1
 62
   144
420
  1799611
370
    25
100
AcDbVertex
100
AcDb2dVertex
 10
6.203213087021064
 20
-4.911824514626965
 30
0.0
  0
VERTEX
  5
1A7
330
1A5
100
AcDbEntity
  8
Layer 1
 62
   144
420
  1799611
370
    25
100
AcDbVertex
100
AcDb2dVertex
 10
6.232813084598218
 20
-4.911824514626965
 30
0.0
  0
SEQEND
  5
1A8
330
1A5
100
AcDbEntity
  8
Layer 1
 62
   144
420
  1799611
370
    25
  0
POLYLINE
  5
1A9
330
1F
100
AcDbEntity
  8
Layer 1
 62
   144
420
  1799611
370
    25
100
AcDb2dPolyline
 66
     1
 10
0.0
 20
0.0
 30
0.0
  0
VERTEX
  5
1AA
330
1A9
100
AcDbEntity
  8
Layer 1
 62
   144
420
  1799611
370
    25
100
AcDbVertex
100
AcDb2dVertex
 10
6.203213087021064
 20
-4.888224516558694
 30
0.0
  0
VERTEX
  5
1AB
330
1A9
100
AcDbEntity
  8
Layer 1
 62
   144
420
  1799611
370
    25
100
AcDbVertex
100
AcDb2dVertex
 10
6.203213087021064
 20
-4.911824514626965
 30
0.0
  0
SEQEND
  5
1AC
330
1A9
100
AcDbEntity
  8
Layer 1
 62
   144
420
  1799611
370
    25
  0
POLYLINE
  5
1AD
330
1F
100
AcDbEntity
  8
Layer 1
 62
   144
420
  1799611
370
    25
100
AcDb2dPolyline
 66
     1
 10
0.0
 20
0.0
 30
0.0
  0
VERTEX
  5
1AE
330
1AD
100
AcDbEntity
  8
Layer 1
 62
   144
420
  1799611
370
    25
100
AcDbVertex
100
AcDb2dVertex
 10
5.652113132130201
 20
-4.911824514626965
 30
0.0
  0
VERTEX
  5
1AF
330
1AD
100
AcDbEntity
  8
Layer 1
 62
   144
420
  1799611
370
    25
100
AcDbVertex
100
AcDb2dVertex
 10
5.652113132130201
 20
-4.888224516558694
 30
0.0
  0
SEQEND
  5
1B0
330
1AD
100
AcDbEntity
  8
Layer 1
 62
   144
420
  1799611
370
    25
  0
POLYLINE
  5
1B1
330
1F
100
AcDbEntity
  8
Layer 1
 62
   144
420
  1799611
370
    25
100
AcDb2dPolyline
 66
     1
 10
0.0
 20
0.0
 30
0.0
  0
VERTEX
  5
1B2
330
1B1
100
AcDbEntity
  8
Layer 1
 62
   144
420
  1799611
370
    25
100
AcDbVertex
100
AcDb2dVertex
 10
5.622513134553047
 20
-4.911824514626965
 30
0.0
  0
VERTEX
  5
1B3
330
1B1
100
AcDbEntity
  8
Layer 1
 62
   144
420
  1799611
370
    25
100
AcDbVertex
100
AcDb2dVertex
 10
5.652113132130201
 20
-4.911824514626965
 30
0.0
  0
SEQEND
  5
1B4
330
1B1
100
AcDbEntity
  8
Layer 1
 62
   144
420
  1799611
370
    25
  0
POLYLINE
  5
1B5
330
1F
100
AcDbEntity
  8
Layer 1
 62
   144
420
  1799611
370
    25
100
AcDb2dPolyline
 66
     1
 10
0.0
 20
0.0
 30
0.0
  0
VERTEX
  5
1B6
330
1B5
100
AcDbEntity
  8
Layer 1
 62
   144
420
  1799611
370
    25
100
AcDbVertex
100
AcDb2dVertex
 10
5.622513134553047
 20
-4.911824514626965
 30
0.0
  0
VERTEX
  5
1B7
330
1B5
100
AcDbEntity
  8
Layer 1
 62
   144
420
  1799611
370
    25
100
AcDbVertex
100
AcDb2dVertex
 10
5.622513134553047
 20
-5.415724473381285
 30
0.0
  0
SEQEND
  5
1B8
330
1B5
100
AcDbEntity
  8
Layer 1
 62
   144
420
  1799611
370
    25
  0
POLYLINE
  5
1B9
330
1F
100
AcDbEntity
  8
Layer 1
 62
   144
420
  1799611
370
    25
100
AcDb2dPolyline
 66
     1
 10
0.0
 20
0.0
 30
0.0
  0
VERTEX
  5
1BA
330
1B9
100
AcDbEntity
  8
Layer 1
 62
   144
420
  1799611
370
    25
100
AcDbVertex
100
AcDb2dVertex
 10
6.232813084598218
 20
-4.911824514626965
 30
0.0
  0
VERTEX
  5
1BB
330
1B9
100
AcDbEntity
  8
Layer 1
 62
   144
420
  1799611
370
    25
100
AcDbVertex
100
AcDb2dVertex
 10
6.232813084598218
 20
-5.415724473381285
 30
0.0
  0
SEQEND
  5
1BC
330
1B9
100
AcDbEntity
  8
Layer 1
 62
   144
420
  1799611
370
    25
  0
POLYLINE
  5
1BD
330
1F
100
AcDbEntity
  8
Layer 1
 62
   144
420
  1799611
370
    25
100
AcDb2dPolyline
 66
     1
 10
0.0
 20
0.0
 30
0.0
  0
VERTEX
  5
1BE
330
1BD
100
AcDbEntity
  8
Layer 1
 62
   144
420
  1799611
370
    25
100
AcDbVertex
100
AcDb2dVertex
 10
5.652113132130201
 20
-5.439324471449557
 30
0.0
  0
VERTEX
  5
1BF
330
1BD
100
AcDbEntity
  8
Layer 1
 62
   144
420
  1799611
370
    25
100
AcDbVertex
100
AcDb2dVertex
 10
6.203213087021064
 20
-5.439324471449557
 30
0.0
  0
SEQEND
  5
1C0
330
1BD
100
AcDbEntity
  8
Layer 1
 62
   144
420
  1799611
370
    25
  0
POLYLINE
  5
1C1
330
1F
100
AcDbEntity
  8
Layer 1
 62
   144
420
  1799611
370
    25
100
AcDb2dPolyline
 66
     1
 10
0.0
 20
0.0
 30
0.0
  0
VERTEX
  5
1C2
330
1C1
100
AcDbEntity
  8
Layer 1
 62
   144
420
  1799611
370
    25
100
AcDbVertex
100
AcDb2dVertex
 10
5.652113132130201
 20
-4.888224516558694
 30
0.0
  0
VERTEX
  5
1C3
330
1C1
100
AcDbEntity
  8
Layer 1
 62
   144
420
  1799611
370
    25
100
AcDbVertex
100
AcDb2dVertex
 10
6.203213087021064
 20
-4.888224516558694
 30
0.0
  0
SEQEND
  5
1C4
330
1C1
100
AcDbEntity
  8
Layer 1
 62
   144
420
  1799611
370
    25
  0
POLYLINE
  5
1C5
330
1F
100
AcDbEntity
  8
Layer 1
 62
   144
420
  1799611
370
    25
100
AcDb2dPolyline
 66
     1
 10
0.0
 20
0.0
 30
0.0
  0
VERTEX
  5
1C6
330
1C5
100
AcDbEntity
  8
Layer 1
 62
   144
420
  1799611
370
    25
100
AcDbVertex
100
AcDb2dVertex
 10
5.453213148410744
 20
-5.415724473381285
 30
0.0
  0
VERTEX
  5
1C7
330
1C5
100
AcDbEntity
  8
Layer 1
 62
   144
420
  1799611
370
    25
100
AcDbVertex
100
AcDb2dVertex
 10
5.453213148410744
 20
-5.439324471449557
 30
0.0
  0
SEQEND
  5
1C8
330
1C5
100
AcDbEntity
  8
Layer 1
 62
   144
420
  1799611
370
    25
  0
POLYLINE
  5
1C9
330
1F
100
AcDbEntity
  8
Layer 1
 62
   144
420
  1799611
370
    25
100
AcDb2dPolyline
 66
     1
 10
0.0
 20
0.0
 30
0.0
  0
VERTEX
  5
1CA
330
1C9
100
AcDbEntity
  8
Layer 1
 62
   144
420
  1799611
370
    25
100
AcDbVertex
100
AcDb2dVertex
 10
5.482813145987898
 20
-5.415724473381285
 30
0.0
  0
VERTEX
  5
1CB
330
1C9
100
AcDbEntity
  8
Layer 1
 62
   144
420
  1799611
370
    25
100
AcDbVertex
100
AcDb2dVertex
 10
5.453213148410744
 20
-5.415724473381285
 30
0.0
  0
SEQEND
  5
1CC
330
1C9
100
AcDbEntity
  8
Layer 1
 62
   144
420
  1799611
370
    25
  0
POLYLINE
  5
1CD
330
1F
100
AcDbEntity
  8
Layer 1
 62
   144
420
  1799611
370
    25
100
AcDb2dPolyline
 66
     1
 10
0.0
 20
0.0
 30
0.0
  0
VERTEX
  5
1CE
330
1CD
100
AcDbEntity
  8
Layer 1
 62
   144
420
  1799611
370
    25
100
AcDbVertex
100
AcDb2dVertex
 10
4.902113193519881
 20
-5.415724473381285
 30
0.0
  0
VERTEX
  5
1CF
330
1CD
100
AcDbEntity
  8
Layer 1
 62
   144
420
  1799611
370
    25
100
AcDbVertex
100
AcDb2dVertex
 10
4.872513195942727
 20
-5.415724473381285
 30
0.0
  0
SEQEND
  5
1D0
330
1CD
100
AcDbEntity
  8
Layer 1
 62
   144
420
  1799611
370
    25
  0
POLYLINE
  5
1D1
330
1F
100
AcDbEntity
  8
Layer 1
 62
   144
420
  1799611
370
    25
100
AcDb2dPolyline
 66
     1
 10
0.0
 20
0.0
 30
0.0
  0
VERTEX
  5
1D2
330
1D1
100
AcDbEntity
  8
Layer 1
 62
   144
420
  1799611
370
    25
100
AcDbVertex
100
AcDb2dVertex
 10
4.902113193519881
 20
-5.439324471449557
 30
0.0
  0
VERTEX
  5
1D3
330
1D1
100
AcDbEntity
  8
Layer 1
 62
   144
420
  1799611
370
    25
100
AcDbVertex
100
AcDb2dVertex
 10
4.902113193519881
 20
-5.415724473381285
 30
0.0
  0
SEQEND
  5
1D4
330
1D1
100
AcDbEntity
  8
Layer 1
 62
   144
420
  1799611
370
    25
  0
POLYLINE
  5
1D5
330
1F
100
AcDbEntity
  8
Layer 1
 62
   144
420
  1799611
370
    25
100
AcDb2dPolyline
 66
     1
 10
0.0
 20
0.0
 30
0.0
  0
VERTEX
  5
1D6
330
1D5
100
AcDbEntity
  8
Layer 1
 62
   144
420
  1799611
370
    25
100
AcDbVertex
100
AcDb2dVertex
 10
5.453213148410744
 20
-4.911824514626965
 30
0.0
  0
VERTEX
  5
1D7
330
1D5
100
AcDbEntity
  8
Layer 1
 62
   144
420
  1799611
370
    25
100
AcDbVertex
100
AcDb2dVertex
 10
5.482813145987898
 20
-4.911824514626965
 30
0.0
  0
SEQEND
  5
1D8
330
1D5
100
AcDbEntity
  8
Layer 1
 62
   144
420
  1799611
370
    25
  0
POLYLINE
  5
1D9
330
1F
100
AcDbEntity
  8
Layer 1
 62
   144
420
  1799611
370
    25
100
AcDb2dPolyline
 66
     1
 10
0.0
 20
0.0
 30
0.0
  0
VERTEX
  5
1DA
330
1D9
100
AcDbEntity
  8
Layer 1
 62
   144
420
  1799611
370
    25
100
AcDbVertex
100
AcDb2dVertex
 10
5.453213148410744
 20
-4.888224516558694
 30
0.0
  0
VERTEX
  5
1DB
330
1D9
100
AcDbEntity
  8
Layer 1
 62
   144
420
  1799611
370
    25
100
AcDbVertex
100
AcDb2dVertex
 10
5.453213148410744
 20
-4.911824514626965
 30
0.0
  0
SEQEND
  5
1DC
330
1D9
100
AcDbEntity
  8
Layer 1
 62
   144
420
  1799611
370
    25
  0
POLYLINE
  5
1DD
330
1F
100
AcDbEntity
  8
Layer 1
 62
   144
420
  1799611
370
    25
100
AcDb2dPolyline
 66
     1
 10
0.0
 20
0.0
 30
0.0
  0
VERTEX
  5
1DE
330
1DD
100
AcDbEntity
  8
Layer 1
 62
   144
420
  1799611
370
    25
100
AcDbVertex
100
AcDb2dVertex
 10
4.902113193519881
 20
-4.911824514626965
 30
0.0
  0
VERTEX
  5
1DF
330
1DD
100
AcDbEntity
  8
Layer 1
 62
   144
420
  1799611
370
    25
100
AcDbVertex
100
AcDb2dVertex
 10
4.902113193519881
 20
-4.888224516558694
 30
0.0
  0
SEQEND
  5
1E0
330
1DD
100
AcDbEntity
  8
Layer 1
 62
   144
420
  1799611
370
    25
  0
POLYLINE
  5
1E1
330
1F
100
AcDbEntity
  8
Layer 1
 62
   144
420
  1799611
370
    25
100
AcDb2dPolyline
 66
     1
 10
0.0
 20
0.0
 30
0.0
  0
VERTEX
  5
1E2
330
1E1
100
AcDbEntity
  8
Layer 1
 62
   144
420
  1799611
370
    25
100
AcDbVertex
100
AcDb2dVertex
 10
4.872513195942727
 20
-4.911824514626965
 30
0.0
  0
VERTEX
  5
1E3
330
1E1
100
AcDbEntity
  8
Layer 1
 62
   144
420
  1799611
370
    25
100
AcDbVertex
100
AcDb2dVertex
 10
4.902113193519881
 20
-4.911824514626965
 30
0.0
  0
SEQEND
  5
1E4
330
1E1
100
AcDbEntity
  8
Layer 1
 62
   144
420
  1799611
370
    25
  0
POLYLINE
  5
1E5
330
1F
100
AcDbEntity
  8
Layer 1
 62
   144
420
  1799611
370
    25
100
AcDb2dPolyline
 66
     1
 10
0.0
 20
0.0
 30
0.0
  0
VERTEX
  5
1E6
330
1E5
100
AcDbEntity
  8
Layer 1
 62
   144
420
  1799611
370
    25
100
AcDbVertex
100
AcDb2dVertex
 10
4.872513195942727
 20
-4.911824514626965
 30
0.0
  0
VERTEX
  5
1E7
330
1E5
100
AcDbEntity
  8
Layer 1
 62
   144
420
  1799611
370
    25
100
AcDbVertex
100
AcDb2dVertex
 10
4.872513195942727
 20
-5.415724473381285
 30
0.0
  0
SEQEND
  5
1E8
330
1E5
100
AcDbEntity
  8
Layer 1
 62
   144
420
  1799611
370
    25
  0
POLYLINE
  5
1E9
330
1F
100
AcDbEntity
  8
Layer 1
 62
   144
420
  1799611
370
    25
100
AcDb2dPolyline
 66
     1
 10
0.0
 20
0.0
 30
0.0
  0
VERTEX
  5
1EA
330
1E9
100
AcDbEntity
  8
Layer 1
 62
   144
420
  1799611
370
    25
100
AcDbVertex
100
AcDb2dVertex
 10
5.482813145987898
 20
-4.911824514626965
 30
0.0
  0
VERTEX
  5
1EB
330
1E9
100
AcDbEntity
  8
Layer 1
 62
   144
420
  1799611
370
    25
100
AcDbVertex
100
AcDb2dVertex
 10
5.482813145987898
 20
-5.415724473381285
 30
0.0
  0
SEQEND
  5
1EC
330
1E9
100
AcDbEntity
  8
Layer 1
 62
   144
420
  1799611
370
    25
  0
POLYLINE
  5
1ED
330
1F
100
AcDbEntity
  8
Layer 1
 62
   144
420
  1799611
370
    25
100
AcDb2dPolyline
 66
     1
 10
0.0
 20
0.0
 30
0.0
  0
VERTEX
  5
1EE
330
1ED
100
AcDbEntity
  8
Layer 1
 62
   144
420
  1799611
370
    25
100
AcDbVertex
100
AcDb2dVertex
 10
4.902113193519881
 20
-5.439324471449557
 30
0.0
  0
VERTEX
  5
1EF
330
1ED
100
AcDbEntity
  8
Layer 1
 62
   144
420
  1799611
370
    25
100
AcDbVertex
100
AcDb2dVertex
 10
5.453213148410744
 20
-5.439324471449557
 30
0.0
  0
SEQEND
  5
1F0
330
1ED
100
AcDbEntity
  8
Layer 1
 62
   144
420
  1799611
370
    25
  0
POLYLINE
  5
1F1
330
1F
100
AcDbEntity
  8
Layer 1
 62
   144
420
  1799611
370
    25
100
AcDb2dPolyline
 66
     1
 10
0.0
 20
0.0
 30
0.0
  0
VERTEX
  5
1F2
330
1F1
100
AcDbEntity
  8
Layer 1
 62
   144
420
  1799611
370
    25
100
AcDbVertex
100
AcDb2dVertex
 10
4.902113193519881
 20
-4.888224516558694
 30
0.0
  0
VERTEX
  5
1F3
330
1F1
100
AcDbEntity
  8
Layer 1
 62
   144
420
  1799611
370
    25
100
AcDbVertex
100
AcDb2dVertex
 10
5.453213148410744
 20
-4.888224516558694
 30
0.0
  0
SEQEND
  5
1F4
330
1F1
100
AcDbEntity
  8
Layer 1
 62
   144
420
  1799611
370
    25
  0
POLYLINE
  5
1F5
330
1F
100
AcDbEntity
  8
Layer 1
 62
   144
420
  1799611
370
    25
100
AcDb2dPolyline
 66
     1
 10
0.0
 20
0.0
 30
0.0
  0
VERTEX
  5
1F6
330
1F5
100
AcDbEntity
  8
Layer 1
 62
   144
420
  1799611
370
    25
100
AcDbVertex
100
AcDb2dVertex
 10
7.2894686015529
 20
-4.474190972124537
 30
0.0
  0
VERTEX
  5
1F7
330
1F5
100
AcDbEntity
  8
Layer 1
 62
   144
420
  1799611
370
    25
100
AcDbVertex
100
AcDb2dVertex
 10
7.295024178301219
 20
-4.474190972124537
 30
0.0
  0
VERTEX
  5
1F8
330
1F5
100
AcDbEntity
  8
Layer 1
 62
   144
420
  1799611
370
    25
100
AcDbVertex
100
AcDb2dVertex
 10
7.300579649085724
 20
-4.474190972124537
 30
0.0
  0
VERTEX
  5
1F9
330
1F5
100
AcDbEntity
  8
Layer 1
 62
   144
420
  1799611
370
    25
100
AcDbVertex
100
AcDb2dVertex
 10
7.307524093530168
 20
-4.475579945784475
 30
0.0
  0
VERTEX
  5
1FA
330
1F5
100
AcDbEntity
  8
Layer 1
 62
   144
420
  1799611
370
    25
100
AcDbVertex
100
AcDb2dVertex
 10
7.313079670278486
 20
-4.476968919444415
 30
0.0
  0
VERTEX
  5
1FB
330
1F5
100
AcDbEntity
  8
Layer 1
 62
   144
420
  1799611
370
    25
100
AcDbVertex
100
AcDb2dVertex
 10
7.318635247026805
 20
-4.479746442909041
 30
0.0
  0
VERTEX
  5
1FC
330
1F5
100
AcDbEntity
  8
Layer 1
 62
   144
420
  1799611
370
    25
100
AcDbVertex
100
AcDb2dVertex
 10
7.324190823775123
 20
-4.48252439022892
 30
0.0
  0
VERTEX
  5
1FD
330
1F5
100
AcDbEntity
  8
Layer 1
 62
   144
420
  1799611
370
    25
100
AcDbVertex
100
AcDb2dVertex
 10
7.32974640052344
 20
-4.485302337548799
 30
0.0
  0
VERTEX
  5
1FE
330
1F5
100
AcDbEntity
  8
Layer 1
 62
   144
420
  1799611
370
    25
100
AcDbVertex
100
AcDb2dVertex
 10
7.335301871307946
 20
-4.488079861013426
 30
0.0
  0
VERTEX
  5
1FF
330
1F5
100
AcDbEntity
  8
Layer 1
 62
   144
420
  1799611
370
    25
100
AcDbVertex
100
AcDb2dVertex
 10
7.339468580360138
 20
-4.492246781993243
 30
0.0
  0
VERTEX
  5
200
330
1F5
100
AcDbEntity
  8
Layer 1
 62
   144
420
  1799611
370
    25
100
AcDbVertex
100
AcDb2dVertex
 10
7.345024157108456
 20
-4.496413279117809
 30
0.0
  0
VERTEX
  5
201
330
1F5
100
AcDbEntity
  8
Layer 1
 62
   144
420
  1799611
370
    25
100
AcDbVertex
100
AcDb2dVertex
 10
7.349190760196834
 20
-4.500579776242375
 30
0.0
  0
VERTEX
  5
202
330
1F5
100
AcDbEntity
  8
Layer 1
 62
   144
420
  1799611
370
    25
100
AcDbVertex
100
AcDb2dVertex
 10
7.353357469249026
 20
-4.506135670882132
 30
0.0
  0
VERTEX
  5
203
330
1F5
100
AcDbEntity
  8
Layer 1
 62
   144
420
  1799611
370
    25
100
AcDbVertex
100
AcDb2dVertex
 10
7.356135204641279
 20
-4.511691141666637
 30
0.0
  0
VERTEX
  5
204
330
1F5
100
AcDbEntity
  8
Layer 1
 62
   144
420
  1799611
370
    25
100
AcDbVertex
100
AcDb2dVertex
 10
7.358913045997345
 20
-4.517246612451142
 30
0.0
  0
VERTEX
  5
205
330
1F5
100
AcDbEntity
  8
Layer 1
 62
   144
420
  1799611
370
    25
100
AcDbVertex
100
AcDb2dVertex
 10
7.361690781389598
 20
-4.522802083235647
 30
0.0
  0
VERTEX
  5
206
330
1F5
100
AcDbEntity
  8
Layer 1
 62
   144
420
  1799611
370
    25
100
AcDbVertex
100
AcDb2dVertex
 10
7.364468622745663
 20
-4.528357554020153
 30
0.0
  0
VERTEX
  5
207
330
1F5
100
AcDbEntity
  8
Layer 1
 62
   144
420
  1799611
370
    25
100
AcDbVertex
100
AcDb2dVertex
 10
7.36585749044179
 20
-4.53391344865991
 30
0.0
  0
VERTEX
  5
208
330
1F5
100
AcDbEntity
  8
Layer 1
 62
   144
420
  1799611
370
    25
100
AcDbVertex
100
AcDb2dVertex
 10
7.367246358137916
 20
-4.539468919444415
 30
0.0
  0
VERTEX
  5
209
330
1F5
100
AcDbEntity
  8
Layer 1
 62
   144
420
  1799611
370
    25
100
AcDbVertex
100
AcDb2dVertex
 10
7.367246358137916
 20
-4.54641336388886
 30
0.0
  0
VERTEX
  5
20A
330
1F5
100
AcDbEntity
  8
Layer 1
 62
   144
420
  1799611
370
    25
100
AcDbVertex
100
AcDb2dVertex
 10
7.367246358137916
 20
-4.551968834673365
 30
0.0
  0
VERTEX
  5
20B
330
1F5
100
AcDbEntity
  8
Layer 1
 62
   144
420
  1799611
370
    25
100
AcDbVertex
100
AcDb2dVertex
 10
7.367246358137916
 20
-7.274191056895587
 30
0.0
  0
VERTEX
  5
20C
330
1F5
100
AcDbEntity
  8
Layer 1
 62
   144
420
  1799611
370
    25
100
AcDbVertex
100
AcDb2dVertex
 10
7.367246358137916
 20
-7.281135501340032
 30
0.0
  0
VERTEX
  5
20D
330
1F5
100
AcDbEntity
  8
Layer 1
 62
   144
420
  1799611
370
    25
100
AcDbVertex
100
AcDb2dVertex
 10
7.367246358137916
 20
-7.286691395979788
 30
0.0
  0
VERTEX
  5
20E
330
1F5
100
AcDbEntity
  8
Layer 1
 62
   144
420
  1799611
370
    25
100
AcDbVertex
100
AcDb2dVertex
 10
7.36585749044179
 20
-7.293635840424233
 30
0.0
  0
VERTEX
  5
20F
330
1F5
100
AcDbEntity
  8
Layer 1
 62
   144
420
  1799611
370
    25
100
AcDbVertex
100
AcDb2dVertex
 10
7.364468622745663
 20
-7.299190887353486
 30
0.0
  0
VERTEX
  5
210
330
1F5
100
AcDbEntity
  8
Layer 1
 62
   144
420
  1799611
370
    25
100
AcDbVertex
100
AcDb2dVertex
 10
7.361690781389598
 20
-7.304746781993243
 30
0.0
  0
VERTEX
  5
211
330
1F5
100
AcDbEntity
  8
Layer 1
 62
   144
420
  1799611
370
    25
100
AcDbVertex
100
AcDb2dVertex
 10
7.358913045997345
 20
-7.310301828922497
 30
0.0
  0
VERTEX
  5
212
330
1F5
100
AcDbEntity
  8
Layer 1
 62
   144
420
  1799611
370
    25
100
AcDbVertex
100
AcDb2dVertex
 10
7.356135204641279
 20
-7.315857723562253
 30
0.0
  0
VERTEX
  5
213
330
1F5
100
AcDbEntity
  8
Layer 1
 62
   144
420
  1799611
370
    25
100
AcDbVertex
100
AcDb2dVertex
 10
7.353357469249026
 20
-7.32141361820201
 30
0.0
  0
VERTEX
  5
214
330
1F5
100
AcDbEntity
  8
Layer 1
 62
   144
420
  1799611
370
    25
100
AcDbVertex
100
AcDb2dVertex
 10
7.349190760196834
 20
-7.325580115326576
 30
0.0
  0
VERTEX
  5
215
330
1F5
100
AcDbEntity
  8
Layer 1
 62
   144
420
  1799611
370
    25
100
AcDbVertex
100
AcDb2dVertex
 10
7.345024157108456
 20
-7.33113516225583
 30
0.0
  0
VERTEX
  5
216
330
1F5
100
AcDbEntity
  8
Layer 1
 62
   144
420
  1799611
370
    25
100
AcDbVertex
100
AcDb2dVertex
 10
7.339468580360138
 20
-7.335302507090899
 30
0.0
  0
VERTEX
  5
217
330
1F5
100
AcDbEntity
  8
Layer 1
 62
   144
420
  1799611
370
    25
100
AcDbVertex
100
AcDb2dVertex
 10
7.335301871307946
 20
-7.338079606700274
 30
0.0
  0
VERTEX
  5
218
330
1F5
100
AcDbEntity
  8
Layer 1
 62
   144
420
  1799611
370
    25
100
AcDbVertex
100
AcDb2dVertex
 10
7.32974640052344
 20
-7.342246951535344
 30
0.0
  0
VERTEX
  5
219
330
1F5
100
AcDbEntity
  8
Layer 1
 62
   144
420
  1799611
370
    25
100
AcDbVertex
100
AcDb2dVertex
 10
7.324190823775123
 20
-7.345024051144719
 30
0.0
  0
VERTEX
  5
21A
330
1F5
100
AcDbEntity
  8
Layer 1
 62
   144
420
  1799611
370
    25
100
AcDbVertex
100
AcDb2dVertex
 10
7.318635247026805
 20
-7.347801998464597
 30
0.0
  0
VERTEX
  5
21B
330
1F5
100
AcDbEntity
  8
Layer 1
 62
   144
420
  1799611
370
    25
100
AcDbVertex
100
AcDb2dVertex
 10
7.313079670278486
 20
-7.349191395979788
 30
0.0
  0
VERTEX
  5
21C
330
1F5
100
AcDbEntity
  8
Layer 1
 62
   144
420
  1799611
370
    25
100
AcDbVertex
100
AcDb2dVertex
 10
7.307524093530168
 20
-7.351968495589163
 30
0.0
  0
VERTEX
  5
21D
330
1F5
100
AcDbEntity
  8
Layer 1
 62
   144
420
  1799611
370
    25
100
AcDbVertex
100
AcDb2dVertex
 10
7.300579649085724
 20
-7.351968495589163
 30
0.0
  0
VERTEX
  5
21E
330
1F5
100
AcDbEntity
  8
Layer 1
 62
   144
420
  1799611
370
    25
100
AcDbVertex
100
AcDb2dVertex
 10
7.295024178301219
 20
-7.353357893104354
 30
0.0
  0
VERTEX
  5
21F
330
1F5
100
AcDbEntity
  8
Layer 1
 62
   144
420
  1799611
370
    25
100
AcDbVertex
100
AcDb2dVertex
 10
7.2894686015529
 20
-7.353357893104354
 30
0.0
  0
VERTEX
  5
220
330
1F5
100
AcDbEntity
  8
Layer 1
 62
   144
420
  1799611
370
    25
100
AcDbVertex
100
AcDb2dVertex
 10
4.565857299706926
 20
-7.353357893104354
 30
0.0
  0
VERTEX
  5
221
330
1F5
100
AcDbEntity
  8
Layer 1
 62
   144
420
  1799611
370
    25
100
AcDbVertex
100
AcDb2dVertex
 10
4.56030182892242
 20
-7.353357893104354
 30
0.0
  0
VERTEX
  5
222
330
1F5
100
AcDbEntity
  8
Layer 1
 62
   144
420
  1799611
370
    25
100
AcDbVertex
100
AcDb2dVertex
 10
4.554746358137916
 20
-7.351968495589163
 30
0.0
  0
VERTEX
  5
223
330
1F5
100
AcDbEntity
  8
Layer 1
 62
   144
420
  1799611
370
    25
100
AcDbVertex
100
AcDb2dVertex
 10
4.547801913693471
 20
-7.351968495589163
 30
0.0
  0
VERTEX
  5
224
330
1F5
100
AcDbEntity
  8
Layer 1
 62
   144
420
  1799611
370
    25
100
AcDbVertex
100
AcDb2dVertex
 10
4.542246442908966
 20
-7.349191395979788
 30
0.0
  0
VERTEX
  5
225
330
1F5
100
AcDbEntity
  8
Layer 1
 62
   144
420
  1799611
370
    25
100
AcDbVertex
100
AcDb2dVertex
 10
4.536690972124461
 20
-7.347801998464597
 30
0.0
  0
VERTEX
  5
226
330
1F5
100
AcDbEntity
  8
Layer 1
 62
   144
420
  1799611
370
    25
100
AcDbVertex
100
AcDb2dVertex
 10
4.531135077484704
 20
-7.345024051144719
 30
0.0
  0
VERTEX
  5
227
330
1F5
100
AcDbEntity
  8
Layer 1
 62
   144
420
  1799611
370
    25
100
AcDbVertex
100
AcDb2dVertex
 10
4.525579606700199
 20
-7.342246951535344
 30
0.0
  0
VERTEX
  5
228
330
1F5
100
AcDbEntity
  8
Layer 1
 62
   144
420
  1799611
370
    25
100
AcDbVertex
100
AcDb2dVertex
 10
4.520024135915693
 20
-7.338079606700274
 30
0.0
  0
VERTEX
  5
229
330
1F5
100
AcDbEntity
  8
Layer 1
 62
   144
420
  1799611
370
    25
100
AcDbVertex
100
AcDb2dVertex
 10
4.515857638791127
 20
-7.335302507090899
 30
0.0
  0
VERTEX
  5
22A
330
1F5
100
AcDbEntity
  8
Layer 1
 62
   144
420
  1799611
370
    25
100
AcDbVertex
100
AcDb2dVertex
 10
4.510301744151371
 20
-7.33113516225583
 30
0.0
  0
VERTEX
  5
22B
330
1F5
100
AcDbEntity
  8
Layer 1
 62
   144
420
  1799611
370
    25
100
AcDbVertex
100
AcDb2dVertex
 10
4.506135247026805
 20
-7.325580115326576
 30
0.0
  0
VERTEX
  5
22C
330
1F5
100
AcDbEntity
  8
Layer 1
 62
   144
420
  1799611
370
    25
100
AcDbVertex
100
AcDb2dVertex
 10
4.503357299706926
 20
-7.32141361820201
 30
0.0
  0
VERTEX
  5
22D
330
1F5
100
AcDbEntity
  8
Layer 1
 62
   144
420
  1799611
370
    25
100
AcDbVertex
100
AcDb2dVertex
 10
4.49919080258236
 20
-7.315857723562253
 30
0.0
  0
VERTEX
  5
22E
330
1F5
100
AcDbEntity
  8
Layer 1
 62
   144
420
  1799611
370
    25
100
AcDbVertex
100
AcDb2dVertex
 10
4.496412855262482
 20
-7.310301828922497
 30
0.0
  0
VERTEX
  5
22F
330
1F5
100
AcDbEntity
  8
Layer 1
 62
   144
420
  1799611
370
    25
100
AcDbVertex
100
AcDb2dVertex
 10
4.493635331797855
 20
-7.304746781993243
 30
0.0
  0
VERTEX
  5
230
330
1F5
100
AcDbEntity
  8
Layer 1
 62
   144
420
  1799611
370
    25
100
AcDbVertex
100
AcDb2dVertex
 10
4.492246358137916
 20
-7.299190887353486
 30
0.0
  0
VERTEX
  5
231
330
1F5
100
AcDbEntity
  8
Layer 1
 62
   144
420
  1799611
370
    25
100
AcDbVertex
100
AcDb2dVertex
 10
4.489468410818037
 20
-7.293635840424233
 30
0.0
  0
VERTEX
  5
232
330
1F5
100
AcDbEntity
  8
Layer 1
 62
   144
420
  1799611
370
    25
100
AcDbVertex
100
AcDb2dVertex
 10
4.488079861013349
 20
-7.286691395979788
 30
0.0
  0
VERTEX
  5
233
330
1F5
100
AcDbEntity
  8
Layer 1
 62
   144
420
  1799611
370
    25
100
AcDbVertex
100
AcDb2dVertex
 10
4.488079861013349
 20
-7.281135501340032
 30
0.0
  0
VERTEX
  5
234
330
1F5
100
AcDbEntity
  8
Layer 1
 62
   144
420
  1799611
370
    25
100
AcDbVertex
100
AcDb2dVertex
 10
4.488079861013349
 20
-7.274191056895587
 30
0.0
  0
VERTEX
  5
235
330
1F5
100
AcDbEntity
  8
Layer 1
 62
   144
420
  1799611
370
    25
100
AcDbVertex
100
AcDb2dVertex
 10
4.488079861013349
 20
-4.551968834673365
 30
0.0
  0
VERTEX
  5
236
330
1F5
100
AcDbEntity
  8
Layer 1
 62
   144
420
  1799611
370
    25
100
AcDbVertex
100
AcDb2dVertex
 10
4.488079861013349
 20
-4.54641336388886
 30
0.0
  0
VERTEX
  5
237
330
1F5
100
AcDbEntity
  8
Layer 1
 62
   144
420
  1799611
370
    25
100
AcDbVertex
100
AcDb2dVertex
 10
4.488079861013349
 20
-4.539468919444415
 30
0.0
  0
VERTEX
  5
238
330
1F5
100
AcDbEntity
  8
Layer 1
 62
   144
420
  1799611
370
    25
100
AcDbVertex
100
AcDb2dVertex
 10
4.489468410818037
 20
-4.53391344865991
 30
0.0
  0
VERTEX
  5
239
330
1F5
100
AcDbEntity
  8
Layer 1
 62
   144
420
  1799611
370
    25
100
AcDbVertex
100
AcDb2dVertex
 10
4.492246358137916
 20
-4.528357554020153
 30
0.0
  0
VERTEX
  5
23A
330
1F5
100
AcDbEntity
  8
Layer 1
 62
   144
420
  1799611
370
    25
100
AcDbVertex
100
AcDb2dVertex
 10
4.493635331797855
 20
-4.522802083235647
 30
0.0
  0
VERTEX
  5
23B
330
1F5
100
AcDbEntity
  8
Layer 1
 62
   144
420
  1799611
370
    25
100
AcDbVertex
100
AcDb2dVertex
 10
4.496412855262482
 20
-4.517246612451142
 30
0.0
  0
VERTEX
  5
23C
330
1F5
100
AcDbEntity
  8
Layer 1
 62
   144
420
  1799611
370
    25
100
AcDbVertex
100
AcDb2dVertex
 10
4.49919080258236
 20
-4.511691141666637
 30
0.0
  0
VERTEX
  5
23D
330
1F5
100
AcDbEntity
  8
Layer 1
 62
   144
420
  1799611
370
    25
100
AcDbVertex
100
AcDb2dVertex
 10
4.503357299706926
 20
-4.506135670882132
 30
0.0
  0
VERTEX
  5
23E
330
1F5
100
AcDbEntity
  8
Layer 1
 62
   144
420
  1799611
370
    25
100
AcDbVertex
100
AcDb2dVertex
 10
4.506135247026805
 20
-4.500579776242375
 30
0.0
  0
VERTEX
  5
23F
330
1F5
100
AcDbEntity
  8
Layer 1
 62
   144
420
  1799611
370
    25
100
AcDbVertex
100
AcDb2dVertex
 10
4.510301744151371
 20
-4.496413279117809
 30
0.0
  0
VERTEX
  5
240
330
1F5
100
AcDbEntity
  8
Layer 1
 62
   144
420
  1799611
370
    25
100
AcDbVertex
100
AcDb2dVertex
 10
4.515857638791127
 20
-4.492246781993243
 30
0.0
  0
VERTEX
  5
241
330
1F5
100
AcDbEntity
  8
Layer 1
 62
   144
420
  1799611
370
    25
100
AcDbVertex
100
AcDb2dVertex
 10
4.520024135915693
 20
-4.488079861013426
 30
0.0
  0
VERTEX
  5
242
330
1F5
100
AcDbEntity
  8
Layer 1
 62
   144
420
  1799611
370
    25
100
AcDbVertex
100
AcDb2dVertex
 10
4.525579606700199
 20
-4.485302337548799
 30
0.0
  0
VERTEX
  5
243
330
1F5
100
AcDbEntity
  8
Layer 1
 62
   144
420
  1799611
370
    25
100
AcDbVertex
100
AcDb2dVertex
 10
4.531135077484704
 20
-4.48252439022892
 30
0.0
  0
VERTEX
  5
244
330
1F5
100
AcDbEntity
  8
Layer 1
 62
   144
420
  1799611
370
    25
100
AcDbVertex
100
AcDb2dVertex
 10
4.536690972124461
 20
-4.479746442909041
 30
0.0
  0
VERTEX
  5
245
330
1F5
100
AcDbEntity
  8
Layer 1
 62
   144
420
  1799611
370
    25
100
AcDbVertex
100
AcDb2dVertex
 10
4.542246442908966
 20
-4.476968919444415
 30
0.0
  0
VERTEX
  5
246
330
1F5
100
AcDbEntity
  8
Layer 1
 62
   144
420
  1799611
370
    25
100
AcDbVertex
100
AcDb2dVertex
 10
4.547801913693471
 20
-4.475579945784475
 30
0.0
  0
VERTEX
  5
247
330
1F5
100
AcDbEntity
  8
Layer 1
 62
   144
420
  1799611
370
    25
100
AcDbVertex
100
AcDb2dVertex
 10
4.554746358137916
 20
-4.474190972124537
 30
0.0
  0
VERTEX
  5
248
330
1F5
100
AcDbEntity
  8
Layer 1
 62
   144
420
  1799611
370
    25
100
AcDbVertex
100
AcDb2dVertex
 10
4.56030182892242
 20
-4.474190972124537
 30
0.0
  0
VERTEX
  5
249
330
1F5
100
AcDbEntity
  8
Layer 1
 62
   144
420
  1799611
370
    25
100
AcDbVertex
100
AcDb2dVertex
 10
4.565857299706926
 20
-4.474190972124537
 30
0.0
  0
VERTEX
  5
24A
330
1F5
100
AcDbEntity
  8
Layer 1
 62
   144
420
  1799611
370
    25
100
AcDbVertex
100
AcDb2dVertex
 10
7.2894686015529
 20
-4.474190972124537
 30
0.0
  0
SEQEND
  5
24B
330
1F5
100
AcDbEntity
  8
Layer 1
 62
   144
420
  1799611
370
    25
  0
ENDSEC
  0
SECTION
  2
OBJECTS
  0
DICTIONARY
  5
C
330
0
100
AcDbDictionary
281
     1
  3
ACAD_GROUP
350
D
  3
ACAD_LAYOUT
350
1A
  3
ACAD_MATERIAL
350
3B
  3
ACAD_MLEADERSTYLE
350
24D
  3
ACAD_MLINESTYLE
350
17
  3
ACAD_PLOTSETTINGS
350
19
  3
ACAD_PLOTSTYLENAME
350
E
  3
ACAD_TABLESTYLE
350
24C
  3
ACAD_VISUALSTYLE
350
2A
  0
SUN
  5
3F
330
29
100
AcDbSun
 90
        1
290
     0
 63
     7
421
 16777215
 40
1.0
291
     1
 91
  2455826
 92
 54000000
292
     0
 70
     2
 71
   256
280
     1
  0
DICTIONARY
  5
D
102
{ACAD_REACTORS
330
C
102
}
330
C
100
AcDbDictionary
281
     1
  0
DICTIONARY
  5
1A
102
{ACAD_REACTORS
330
C
102
}
330
C
100
AcDbDictionary
281
     1
  3
Layout1
350
1E
  3
Layout2
350
26
  3
Model
350
22
  0
DICTIONARY
  5
3B
102
{ACAD_REACTORS
330
C
102
}
330
C
100
AcDbDictionary
281
     1
  3
ByBlock
350
3D
  3
ByLayer
350
3C
  3
Global
350
3E
  0
DICTIONARY
  5
24D
102
{ACAD_REACTORS
330
C
102
}
330
C
100
AcDbDictionary
281
     1
  0
DICTIONARY
  5
17
102
{ACAD_REACTORS
330
C
102
}
330
C
100
AcDbDictionary
281
     1
  3
Standard
350
18
  0
DICTIONARY
  5
19
102
{ACAD_REACTORS
330
C
102
}
330
C
100
AcDbDictionary
281
     1
  0
ACDBDICTIONARYWDFLT
  5
E
102
{ACAD_REACTORS
330
C
102
}
330
C
100
AcDbDictionary
281
     1
  3
Normal
350
F
100
AcDbDictionaryWithDefault
340
F
  0
DICTIONARY
  5
24C
102
{ACAD_REACTORS
330
C
102
}
330
C
100
AcDbDictionary
281
     1
  0
DICTIONARY
  5
2A
102
{ACAD_REACTORS
330
C
102
}
330
C
100
AcDbDictionary
281
     1
  3
2dWireframe
350
2F
  3
3D Hidden
350
31
  3
3dWireframe
350
30
  3
Basic
350
32
  3
Brighten
350
36
  3
ColorChange
350
3A
  3
Conceptual
350
34
  3
Dim
350
35
  3
Facepattern
350
39
  3
Flat
350
2B
  3
FlatWithEdges
350
2C
  3
Gouraud
350
2D
  3
GouraudWithEdges
350
2E
  3
Linepattern
350
38
  3
Realistic
350
33
  3
Thicken
350
37
  0
LAYOUT
  5
1E
102
{ACAD_REACTORS
330
1A
102
}
330
1A
100
AcDbPlotSettings
  1

  2
none_device
  4

  6

 40
0.0
 41
0.0
 42
0.0
 43
0.0
 44
0.0
 45
0.0
 46
0.0
 47
0.0
 48
0.0
 49
0.0
140
0.0
141
0.0
142
1.0
143
1.0
 70
   688
 72
     0
 73
     0
 74
     5
  7

 75
    16
 76
     0
 77
     2
 78
   300
147
1.0
148
0.0
149
0.0
100
AcDbLayout
  1
Layout1
 70
     1
 71
     1
 10
0.0
 20
0.0
 11
12.0
 21
9.0
 12
0.0
 22
0.0
 32
0.0
 14
1.000000000000000E+20
 24
1.000000000000000E+20
 34
1.000000000000000E+20
 15
-1.000000000000000E+20
 25
-1.000000000000000E+20
 35
-1.000000000000000E+20
146
0.0
 13
0.0
 23
0.0
 33
0.0
 16
1.0
 26
0.0
 36
0.0
 17
0.0
 27
1.0
 37
0.0
 76
     0
330
1B
  0
LAYOUT
  5
26
102
{ACAD_REACTORS
330
1A
102
}
330
1A
100
AcDbPlotSettings
  1

  2
none_device
  4

  6

 40
0.0
 41
0.0
 42
0.0
 43
0.0
 44
0.0
 45
0.0
 46
0.0
 47
0.0
 48
0.0
 49
0.0
140
0.0
141
0.0
142
1.0
143
1.0
 70
   688
 72
     0
 73
     0
 74
     5
  7

 75
    16
 76
     0
 77
     2
 78
   300
147
1.0
148
0.0
149
0.0
100
AcDbLayout
  1
Layout2
 70
     1
 71
     2
 10
0.0
 20
0.0
 11
0.0
 21
0.0
 12
0.0
 22
0.0
 32
0.0
 14
0.0
 24
0.0
 34
0.0
 15
0.0
 25
0.0
 35
0.0
146
0.0
 13
0.0
 23
0.0
 33
0.0
 16
1.0
 26
0.0
 36
0.0
 17
0.0
 27
1.0
 37
0.0
 76
     0
330
23
  0
LAYOUT
  5
22
102
{ACAD_REACTORS
330
1A
102
}
330
1A
100
AcDbPlotSettings
  1

  2
none_device
  4

  6

 40
0.0
 41
0.0
 42
0.0
 43
0.0
 44
0.0
 45
0.0
 46
0.0
 47
0.0
 48
0.0
 49
0.0
140
0.0
141
0.0
142
1.0
143
1.0
 70
  1712
 72
     0
 73
     0
 74
     0
  7

 75
     0
 76
     0
 77
     2
 78
   300
147
1.0
148
0.0
149
0.0
100
AcDbLayout
  1
Model
 70
     1
 71
     0
 10
0.0
 20
0.0
 11
12.0
 21
9.0
 12
0.0
 22
0.0
 32
0.0
 14
1.000000000000000E+20
 24
1.000000000000000E+20
 34
1.000000000000000E+20
 15
-1.000000000000000E+20
 25
-1.000000000000000E+20
 35
-1.000000000000000E+20
146
0.0
 13
0.0
 23
0.0
 33
0.0
 16
1.0
 26
0.0
 36
0.0
 17
0.0
 27
1.0
 37
0.0
 76
     0
330
1F
331
29
  0
MATERIAL
  5
3D
102
{ACAD_REACTORS
330
3B
102
}
330
3B
100
AcDbMaterial
  1
ByBlock
 72
     1
 94
      127
  0
MATERIAL
  5
3C
102
{ACAD_REACTORS
330
3B
102
}
330
3B
100
AcDbMaterial
  1
ByLayer
 72
     1
 94
      127
  0
MATERIAL
  5
3E
102
{ACAD_REACTORS
330
3B
102
}
330
3B
100
AcDbMaterial
  1
Global
 72
     1
 94
      127
  0
MLINESTYLE
  5
18
102
{ACAD_REACTORS
330
17
102
}
330
17
100
AcDbMlineStyle
  2
Standard
 70
     0
  3

 62
   256
 51
90.0
 52
90.0
 71
     2
 49
0.5
 62
   256
  6
BYLAYER
 49
-0.5
 62
   256
  6
BYLAYER
  0
ACDBPLACEHOLDER
  5
F
102
{ACAD_REACTORS
330
E
102
}
330
E
  0
VISUALSTYLE
  5
2F
102
{ACAD_REACTORS
330
2A
102
}
330
2A
100
AcDbVisualStyle
  2
2dWireframe
 70
     4
177
     2
291
     0
 71
     0
176
     1
 72
     2
176
     1
 73
     0
176
     1
 90
        0
176
     1
 40
-0.6
176
     1
 41
-30.0
176
     1
 62
     5
 63
     7
421
 16777215
176
     1
 74
     1
176
     1
 91
        4
176
     1
 64
     7
176
     1
 65
   257
176
     1
 75
     1
176
     1
175
     1
176
     1
 42
1.0
176
     1
 92
        0
176
     1
 66
   257
176
     1
 43
1.0
176
     1
 76
     1
176
     1
 77
     6
176
     1
 78
     2
176
     1
 67
     7
176
     1
 79
     5
176
     1
170
     0
176
     1
171
     0
176
     1
290
     0
176
     1
 93
        1
176
     1
 44
0.0
176
     1
173
     0
176
     1
  0
VISUALSTYLE
  5
31
102
{ACAD_REACTORS
330
2A
102
}
330
2A
100
AcDbVisualStyle
  2
3D Hidden
 70
     6
177
     2
291
     0
 71
     1
176
     1
 72
     2
176
     1
 73
     2
176
     1
 90
        0
176
     1
 40
-0.6
176
     1
 41
-30.0
176
     1
 62
     5
 63
     7
421
 16777215
176
     1
 74
     2
176
     1
 91
        2
176
     1
 64
     7
176
     1
 65
   257
176
     1
 75
     2
176
     1
175
     1
176
     1
 42
40.0
176
     1
 92
        0
176
     1
 66
   257
176
     1
 43
1.0
176
     1
 76
     1
176
     1
 77
     6
176
     1
 78
     2
176
     1
 67
     7
176
     1
 79
     3
176
     1
170
     0
176
     1
171
     0
176
     1
290
     0
176
     1
 93
        1
176
     1
 44
0.0
176
     1
173
     0
176
     1
  0
VISUALSTYLE
  5
30
102
{ACAD_REACTORS
330
2A
102
}
330
2A
100
AcDbVisualStyle
  2
3dWireframe
 70
     5
177
     2
291
     0
 71
     0
176
     1
 72
     2
176
     1
 73
     0
176
     1
 90
        0
176
     1
 40
-0.6
176
     1
 41
-30.0
176
     1
 62
     5
 63
     7
421
 16777215
176
     1
 74
     1
176
     1
 91
        4
176
     1
 64
     7
176
     1
 65
   257
176
     1
 75
     1
176
     1
175
     1
176
     1
 42
1.0
176
     1
 92
        0
176
     1
 66
   257
176
     1
 43
1.0
176
     1
 76
     1
176
     1
 77
     6
176
     1
 78
     2
176
     1
 67
     7
176
     1
 79
     5
176
     1
170
     0
176
     1
171
     0
176
     1
290
     0
176
     1
 93
        1
176
     1
 44
0.0
176
     1
173
     0
176
     1
  0
VISUALSTYLE
  5
32
102
{ACAD_REACTORS
330
2A
102
}
330
2A
100
AcDbVisualStyle
  2
Basic
 70
     7
177
     2
291
     1
 71
     1
176
     1
 72
     0
176
     1
 73
     1
176
     1
 90
        0
176
     1
 40
-0.6
176
     1
 41
-30.0
176
     1
 62
     5
 63
     7
421
 16777215
176
     1
 74
     0
176
     1
 91
        4
176
     1
 64
     7
176
     1
 65
   257
176
     1
 75
     1
176
     1
175
     1
176
     1
 42
1.0
176
     1
 92
        8
176
     1
 66
     7
176
     1
 43
1.0
176
     1
 76
     1
176
     1
 77
     6
176
     1
 78
     2
176
     1
 67
     7
176
     1
 79
     5
176
     1
170
     0
176
     1
171
     0
176
     1
290
     0
176
     1
 93
        1
176
     1
 44
0.0
176
     1
173
     0
176
     1
  0
VISUALSTYLE
  5
36
102
{ACAD_REACTORS
330
2A
102
}
330
2A
100
AcDbVisualStyle
  2
Brighten
 70
    12
177
     2
291
     1
 71
     2
176
     1
 72
     2
176
     1
 73
     0
176
     1
 90
        0
176
     1
 40
-0.6
176
     1
 41
-30.0
176
     1
 62
     5
 63
     7
421
 16777215
176
     1
 74
     1
176
     1
 91
        4
176
     1
 64
     7
176
     1
 65
   257
176
     1
 75
     1
176
     1
175
     1
176
     1
 42
1.0
176
     1
 92
        8
176
     1
 66
     7
176
     1
 43
1.0
176
     1
 76
     1
176
     1
 77
     6
176
     1
 78
     2
176
     1
 67
     7
176
     1
 79
     5
176
     1
170
     0
176
     1
171
     0
176
     1
290
     0
176
     1
 93
        1
176
     1
 44
50.0
176
     1
173
     0
176
     1
  0
VISUALSTYLE
  5
3A
102
{ACAD_REACTORS
330
2A
102
}
330
2A
100
AcDbVisualStyle
  2
ColorChange
 70
    16
177
     2
291
     1
 71
     2
176
     1
 72
     2
176
     1
 73
     3
176
     1
 90
        0
176
     1
 40
-0.6
176
     1
 41
-30.0
176
     1
 62
     5
 63
     8
421
  8421504
176
     1
 74
     1
176
     1
 91
        4
176
     1
 64
     7
176
     1
 65
   257
176
     1
 75
     1
176
     1
175
     1
176
     1
 42
1.0
176
     1
 92
        8
176
     1
 66
     8
424
  8421504
176
     1
 43
1.0
176
     1
 76
     1
176
     1
 77
     6
176
     1
 78
     2
176
     1
 67
     7
176
     1
 79
     5
176
     1
170
     0
176
     1
171
     0
176
     1
290
     0
176
     1
 93
        1
176
     1
 44
0.0
176
     1
173
     0
176
     1
  0
VISUALSTYLE
  5
34
102
{ACAD_REACTORS
330
2A
102
}
330
2A
100
AcDbVisualStyle
  2
Conceptual
 70
     9
177
     2
291
     0
 71
     3
176
     1
 72
     2
176
     1
 73
     0
176
     1
 90
        0
176
     1
 40
-0.6
176
     1
 41
-30.0
176
     1
 62
     5
 63
     7
421
 16777215
176
     1
 74
     2
176
     1
 91
        2
176
     1
 64
     7
176
     1
 65
   257
176
     1
 75
     1
176
     1
175
     1
176
     1
 42
40.0
176
     1
 92
        8
176
     1
 66
     7
176
     1
 43
1.0
176
     1
 76
     1
176
     1
 77
     6
176
     1
 78
     2
176
     1
 67
     7
176
     1
 79
     3
176
     1
170
     0
176
     1
171
     0
176
     1
290
     0
176
     1
 93
        1
176
     1
 44
0.0
176
     1
173
     0
176
     1
  0
VISUALSTYLE
  5
35
102
{ACAD_REACTORS
330
2A
102
}
330
2A
100
AcDbVisualStyle
  2
Dim
 70
    11
177
     2
291
     1
 71
     2
176
     1
 72
     2
176
     1
 73
     0
176
     1
 90
        0
176
     1
 40
-0.6
176
     1
 41
-30.0
176
     1
 62
     5
 63
     7
421
 16777215
176
     1
 74
     1
176
     1
 91
        4
176
     1
 64
     7
176
     1
 65
   257
176
     1
 75
     1
176
     1
175
     1
176
     1
 42
1.0
176
     1
 92
        8
176
     1
 66
     7
176
     1
 43
1.0
176
     1
 76
     1
176
     1
 77
     6
176
     1
 78
     2
176
     1
 67
     7
176
     1
 79
     5
176
     1
170
     0
176
     1
171
     0
176
     1
290
     0
176
     1
 93
        1
176
     1
 44
-50.0
176
     1
173
     0
176
     1
  0
VISUALSTYLE
  5
39
102
{ACAD_REACTORS
330
2A
102
}
330
2A
100
AcDbVisualStyle
  2
Facepattern
 70
    15
177
     2
291
     1
 71
     2
176
     1
 72
     2
176
     1
 73
     0
176
     1
 90
        0
176
     1
 40
-0.6
176
     1
 41
-30.0
176
     1
 62
     5
 63
     7
421
 16777215
176
     1
 74
     1
176
     1
 91
        4
176
     1
 64
     7
176
     1
 65
   257
176
     1
 75
     1
176
     1
175
     1
176
     1
 42
1.0
176
     1
 92
        8
176
     1
 66
     7
176
     1
 43
1.0
176
     1
 76
     1
176
     1
 77
     6
176
     1
 78
     2
176
     1
 67
     7
176
     1
 79
     5
176
     1
170
     0
176
     1
171
     0
176
     1
290
     0
176
     1
 93
        1
176
     1
 44
0.0
176
     1
173
     0
176
     1
  0
VISUALSTYLE
  5
2B
102
{ACAD_REACTORS
330
2A
102
}
330
2A
100
AcDbVisualStyle
  2
Flat
 70
     0
177
     2
291
     1
 71
     2
176
     1
 72
     1
176
     1
 73
     1
176
     1
 90
        2
176
     1
 40
-0.6
176
     1
 41
30.0
176
     1
 62
     5
 63
     7
421
 16777215
176
     1
 74
     0
176
     1
 91
        4
176
     1
 64
     7
176
     1
 65
   257
176
     1
 75
     1
176
     1
175
     1
176
     1
 42
1.0
176
     1
 92
        8
176
     1
 66
     7
176
     1
 43
1.0
176
     1
 76
     1
176
     1
 77
     6
176
     1
 78
     2
176
     1
 67
     7
176
     1
 79
     5
176
     1
170
     0
176
     1
171
     0
176
     1
290
     0
176
     1
 93
       13
176
     1
 44
0.0
176
     1
173
     0
176
     1
  0
VISUALSTYLE
  5
2C
102
{ACAD_REACTORS
330
2A
102
}
330
2A
100
AcDbVisualStyle
  2
FlatWithEdges
 70
     1
177
     2
291
     1
 71
     2
176
     1
 72
     1
176
     1
 73
     1
176
     1
 90
        2
176
     1
 40
-0.6
176
     1
 41
30.0
176
     1
 62
     5
 63
     7
421
 16777215
176
     1
 74
     1
176
     1
 91
        4
176
     1
 64
     7
176
     1
 65
   257
176
     1
 75
     1
176
     1
175
     1
176
     1
 42
1.0
176
     1
 92
        0
176
     1
 66
   257
176
     1
 43
1.0
176
     1
 76
     1
176
     1
 77
     6
176
     1
 78
     2
176
     1
 67
     7
176
     1
 79
     5
176
     1
170
     0
176
     1
171
     0
176
     1
290
     0
176
     1
 93
       13
176
     1
 44
0.0
176
     1
173
     0
176
     1
  0
VISUALSTYLE
  5
2D
102
{ACAD_REACTORS
330
2A
102
}
330
2A
100
AcDbVisualStyle
  2
Gouraud
 70
     2
177
     2
291
     1
 71
     2
176
     1
 72
     2
176
     1
 73
     1
176
     1
 90
        2
176
     1
 40
-0.6
176
     1
 41
30.0
176
     1
 62
     5
 63
     7
421
 16777215
176
     1
 74
     0
176
     1
 91
        4
176
     1
 64
     7
176
     1
 65
   257
176
     1
 75
     1
176
     1
175
     1
176
     1
 42
1.0
176
     1
 92
        0
176
     1
 66
     7
176
     1
 43
1.0
176
     1
 76
     1
176
     1
 77
     6
176
     1
 78
     2
176
     1
 67
     7
176
     1
 79
     5
176
     1
170
     0
176
     1
171
     0
176
     1
290
     0
176
     1
 93
       13
176
     1
 44
0.0
176
     1
173
     0
176
     1
  0
VISUALSTYLE
  5
2E
102
{ACAD_REACTORS
330
2A
102
}
330
2A
100
AcDbVisualStyle
  2
GouraudWithEdges
 70
     3
177
     2
291
     1
 71
     2
176
     1
 72
     2
176
     1
 73
     1
176
     1
 90
        2
176
     1
 40
-0.6
176
     1
 41
30.0
176
     1
 62
     5
 63
     7
421
 16777215
176
     1
 74
     1
176
     1
 91
        4
176
     1
 64
     7
176
     1
 65
   257
176
     1
 75
     1
176
     1
175
     1
176
     1
 42
1.0
176
     1
 92
        0
176
     1
 66
   257
176
     1
 43
1.0
176
     1
 76
     1
176
     1
 77
     6
176
     1
 78
     2
176
     1
 67
     7
176
     1
 79
     5
176
     1
170
     0
176
     1
171
     0
176
     1
290
     0
176
     1
 93
       13
176
     1
 44
0.0
176
     1
173
     0
176
     1
  0
VISUALSTYLE
  5
38
102
{ACAD_REACTORS
330
2A
102
}
330
2A
100
AcDbVisualStyle
  2
Linepattern
 70
    14
177
     2
291
     1
 71
     2
176
     1
 72
     2
176
     1
 73
     0
176
     1
 90
        0
176
     1
 40
-0.6
176
     1
 41
-30.0
176
     1
 62
     5
 63
     7
421
 16777215
176
     1
 74
     1
176
     1
 91
        4
176
     1
 64
     7
176
     1
 65
   257
176
     1
 75
     7
176
     1
175
     7
176
     1
 42
1.0
176
     1
 92
        8
176
     1
 66
     7
176
     1
 43
1.0
176
     1
 76
     1
176
     1
 77
     6
176
     1
 78
     2
176
     1
 67
     7
176
     1
 79
     5
176
     1
170
     0
176
     1
171
     0
176
     1
290
     0
176
     1
 93
        1
176
     1
 44
0.0
176
     1
173
     0
176
     1
  0
VISUALSTYLE
  5
33
102
{ACAD_REACTORS
330
2A
102
}
330
2A
100
AcDbVisualStyle
  2
Realistic
 70
     8
177
     2
291
     0
 71
     2
176
     1
 72
     2
176
     1
 73
     0
176
     1
 90
        0
176
     1
 40
-0.6
176
     1
 41
-30.0
176
     1
 62
     5
 63
     7
421
 16777215
176
     1
 74
     1
176
     1
 91
        0
176
     1
 64
     7
176
     1
 65
   257
176
     1
 75
     1
176
     1
175
     1
176
     1
 42
1.0
176
     1
 92
        8
176
     1
 66
     8
424
  7895160
176
     1
 43
1.0
176
     1
 76
     1
176
     1
 77
     6
176
     1
 78
     2
176
     1
 67
     7
176
     1
 79
     5
176
     1
170
     0
176
     1
171
     0
176
     1
290
     0
176
     1
 93
       13
176
     1
 44
0.0
176
     1
173
     0
176
     1
  0
VISUALSTYLE
  5
37
102
{ACAD_REACTORS
330
2A
102
}
330
2A
100
AcDbVisualStyle
  2
Thicken
 70
    13
177
     2
291
     1
 71
     2
176
     1
 72
     2
176
     1
 73
     0
176
     1
 90
        0
176
     1
 40
-0.6
176
     1
 41
-30.0
176
     1
 62
     5
 63
     7
421
 16777215
176
     1
 74
     1
176
     1
 91
        4
176
     1
 64
     7
176
     1
 65
   257
176
     1
 75
     1
176
     1
175
     1
176
     1
 42
1.0
176
     1
 92
       12
176
     1
 66
     7
176
     1
 43
1.0
176
     1
 76
     1
176
     1
 77
     6
176
     1
 78
     2
176
     1
 67
     7
176
     1
 79
     5
176
     1
170
     0
176
     1
171
     0
176
     1
290
     0
176
     1
 93
        1
176
     1
 44
0.0
176
     1
173
     0
176
     1
  0
ENDSEC
  0
EOF
